<?xml version="1.0" encoding="utf-8" standalone="no"?>
<!DOCTYPE svg PUBLIC "-//W3C//DTD SVG 1.1//EN"
  "http://www.w3.org/Graphics/SVG/1.1/DTD/svg11.dtd">
<svg xmlns:xlink="http://www.w3.org/1999/xlink" width="864pt" height="864pt" viewBox="0 0 864 864" xmlns="http://www.w3.org/2000/svg" version="1.1">
 <metadata>
  <rdf:RDF xmlns:dc="http://purl.org/dc/elements/1.1/" xmlns:cc="http://creativecommons.org/ns#" xmlns:rdf="http://www.w3.org/1999/02/22-rdf-syntax-ns#">
   <cc:Work>
    <dc:type rdf:resource="http://purl.org/dc/dcmitype/StillImage"/>
    <dc:date>2023-05-25T16:55:52.861372</dc:date>
    <dc:format>image/svg+xml</dc:format>
    <dc:creator>
     <cc:Agent>
      <dc:title>Matplotlib v3.7.1, https://matplotlib.org/</dc:title>
     </cc:Agent>
    </dc:creator>
   </cc:Work>
  </rdf:RDF>
 </metadata>
 <defs>
  <style type="text/css">*{stroke-linejoin: round; stroke-linecap: butt}</style>
 </defs>
 <g id="figure_1">
  <g id="patch_1">
   <path d="M 0 864 
L 864 864 
L 864 0 
L 0 0 
z
" style="fill: #ffffff"/>
  </g>
  <g id="axes_1">
   <g id="patch_2">
    <path d="M 74.67 311.512734 
L 426.6 311.512734 
L 426.6 30.48 
L 74.67 30.48 
z
" style="fill: #ffffff"/>
   </g>
   <g id="matplotlib.axis_1">
    <g id="xtick_1">
     <g id="line2d_1">
      <defs>
       <path id="m1abb3b3b9b" d="M 0 0 
L 0 4.8 
" style="stroke: #262626"/>
      </defs>
      <g>
       <use xlink:href="#m1abb3b3b9b" x="101.827389" y="311.512734" style="fill: #262626; stroke: #262626"/>
      </g>
     </g>
     <g id="text_1">
      <!-- Scharber -->
      <g style="fill: #262626" transform="translate(48.75107 379.325492) rotate(-45) scale(0.176 -0.176)">
       <defs>
        <path id="LiberationSans-53" d="M 3975 1216 
Q 3975 938 3867 703 
Q 3759 469 3534 298 
Q 3309 128 2967 32 
Q 2625 -63 2156 -63 
Q 1334 -63 875 225 
Q 416 513 291 1056 
L 869 1172 
Q 913 1000 1003 859 
Q 1094 719 1248 617 
Q 1403 516 1631 459 
Q 1859 403 2178 403 
Q 2444 403 2666 448 
Q 2888 494 3047 587 
Q 3206 681 3295 829 
Q 3384 978 3384 1184 
Q 3384 1400 3286 1534 
Q 3188 1669 3009 1756 
Q 2831 1844 2584 1903 
Q 2338 1963 2038 2031 
Q 1853 2072 1667 2120 
Q 1481 2169 1311 2236 
Q 1141 2303 991 2393 
Q 841 2484 731 2611 
Q 622 2738 559 2905 
Q 497 3072 497 3291 
Q 497 3603 623 3826 
Q 750 4050 975 4194 
Q 1200 4338 1506 4403 
Q 1813 4469 2169 4469 
Q 2578 4469 2868 4405 
Q 3159 4341 3359 4212 
Q 3559 4084 3679 3895 
Q 3800 3706 3872 3456 
L 3284 3353 
Q 3241 3513 3158 3638 
Q 3075 3763 2940 3847 
Q 2806 3931 2614 3975 
Q 2422 4019 2163 4019 
Q 1856 4019 1648 3964 
Q 1441 3909 1314 3815 
Q 1188 3722 1133 3595 
Q 1078 3469 1078 3322 
Q 1078 3125 1176 2998 
Q 1275 2872 1444 2787 
Q 1613 2703 1834 2647 
Q 2056 2591 2306 2534 
Q 2509 2488 2711 2439 
Q 2913 2391 3097 2323 
Q 3281 2256 3442 2165 
Q 3603 2075 3722 1944 
Q 3841 1813 3908 1634 
Q 3975 1456 3975 1216 
z
" transform="scale(0.015625)"/>
        <path id="LiberationSans-63" d="M 859 1706 
Q 859 1416 901 1172 
Q 944 928 1044 751 
Q 1144 575 1308 478 
Q 1472 381 1713 381 
Q 2013 381 2214 543 
Q 2416 706 2463 1044 
L 3031 1006 
Q 3003 797 2909 603 
Q 2816 409 2655 262 
Q 2494 116 2262 26 
Q 2031 -63 1728 -63 
Q 1331 -63 1053 71 
Q 775 206 601 442 
Q 428 678 350 998 
Q 272 1319 272 1694 
Q 272 2034 328 2295 
Q 384 2556 486 2751 
Q 588 2947 725 3080 
Q 863 3213 1023 3292 
Q 1184 3372 1362 3408 
Q 1541 3444 1722 3444 
Q 2006 3444 2228 3366 
Q 2450 3288 2611 3152 
Q 2772 3016 2872 2831 
Q 2972 2647 3013 2434 
L 2434 2391 
Q 2391 2672 2212 2837 
Q 2034 3003 1706 3003 
Q 1466 3003 1305 2923 
Q 1144 2844 1044 2683 
Q 944 2522 901 2278 
Q 859 2034 859 1706 
z
" transform="scale(0.015625)"/>
        <path id="LiberationSans-68" d="M 991 2803 
Q 1084 2975 1193 3095 
Q 1303 3216 1434 3294 
Q 1566 3372 1722 3408 
Q 1878 3444 2072 3444 
Q 2397 3444 2605 3356 
Q 2813 3269 2933 3111 
Q 3053 2953 3098 2734 
Q 3144 2516 3144 2253 
L 3144 0 
L 2578 0 
L 2578 2144 
Q 2578 2359 2551 2521 
Q 2525 2684 2450 2792 
Q 2375 2900 2237 2954 
Q 2100 3009 1881 3009 
Q 1681 3009 1520 2937 
Q 1359 2866 1245 2734 
Q 1131 2603 1068 2415 
Q 1006 2228 1006 1994 
L 1006 0 
L 444 0 
L 444 4638 
L 1006 4638 
L 1006 3431 
Q 1006 3328 1003 3225 
Q 1000 3122 995 3034 
Q 991 2947 987 2886 
Q 984 2825 981 2803 
L 991 2803 
z
" transform="scale(0.015625)"/>
        <path id="LiberationSans-61" d="M 1294 -63 
Q 784 -63 528 206 
Q 272 475 272 944 
Q 272 1278 398 1492 
Q 525 1706 729 1828 
Q 934 1950 1196 1997 
Q 1459 2044 1731 2050 
L 2491 2063 
L 2491 2247 
Q 2491 2456 2447 2603 
Q 2403 2750 2312 2840 
Q 2222 2931 2086 2973 
Q 1950 3016 1766 3016 
Q 1603 3016 1472 2992 
Q 1341 2969 1244 2908 
Q 1147 2847 1087 2742 
Q 1028 2638 1009 2478 
L 422 2531 
Q 453 2731 540 2898 
Q 628 3066 789 3187 
Q 950 3309 1192 3376 
Q 1434 3444 1778 3444 
Q 2416 3444 2737 3151 
Q 3059 2859 3059 2306 
L 3059 850 
Q 3059 600 3125 473 
Q 3191 347 3375 347 
Q 3422 347 3469 353 
Q 3516 359 3559 369 
L 3559 19 
Q 3453 -6 3348 -18 
Q 3244 -31 3125 -31 
Q 2966 -31 2852 11 
Q 2738 53 2666 139 
Q 2594 225 2556 351 
Q 2519 478 2509 647 
L 2491 647 
Q 2400 484 2292 353 
Q 2184 222 2040 130 
Q 1897 38 1714 -12 
Q 1531 -63 1294 -63 
z
M 1422 359 
Q 1691 359 1892 457 
Q 2094 556 2226 709 
Q 2359 863 2425 1044 
Q 2491 1225 2491 1391 
L 2491 1669 
L 1875 1656 
Q 1669 1653 1483 1626 
Q 1297 1600 1156 1522 
Q 1016 1444 933 1303 
Q 850 1163 850 934 
Q 850 659 998 509 
Q 1147 359 1422 359 
z
" transform="scale(0.015625)"/>
        <path id="LiberationSans-72" d="M 444 0 
L 444 2594 
Q 444 2700 442 2811 
Q 441 2922 437 3025 
Q 434 3128 431 3218 
Q 428 3309 425 3381 
L 956 3381 
Q 959 3309 964 3217 
Q 969 3125 973 3028 
Q 978 2931 979 2842 
Q 981 2753 981 2691 
L 994 2691 
Q 1053 2884 1120 3026 
Q 1188 3169 1278 3261 
Q 1369 3353 1494 3398 
Q 1619 3444 1797 3444 
Q 1866 3444 1928 3433 
Q 1991 3422 2025 3413 
L 2025 2897 
Q 1969 2913 1894 2920 
Q 1819 2928 1725 2928 
Q 1531 2928 1395 2840 
Q 1259 2753 1173 2598 
Q 1088 2444 1047 2230 
Q 1006 2016 1006 1763 
L 1006 0 
L 444 0 
z
" transform="scale(0.015625)"/>
        <path id="LiberationSans-62" d="M 3291 1706 
Q 3291 -63 2047 -63 
Q 1663 -63 1408 76 
Q 1153 216 994 525 
L 988 525 
Q 988 444 983 356 
Q 978 269 973 194 
Q 969 119 964 66 
Q 959 13 956 0 
L 413 0 
Q 416 28 419 95 
Q 422 163 425 256 
Q 428 350 429 462 
Q 431 575 431 697 
L 431 4638 
L 994 4638 
L 994 3316 
Q 994 3222 992 3136 
Q 991 3050 988 2984 
Q 984 2906 981 2838 
L 994 2838 
Q 1150 3163 1408 3303 
Q 1666 3444 2047 3444 
Q 2688 3444 2989 3012 
Q 3291 2581 3291 1706 
z
M 2700 1688 
Q 2700 2038 2656 2288 
Q 2613 2538 2516 2698 
Q 2419 2859 2269 2934 
Q 2119 3009 1903 3009 
Q 1681 3009 1511 2937 
Q 1341 2866 1227 2706 
Q 1113 2547 1053 2287 
Q 994 2028 994 1653 
Q 994 1291 1053 1044 
Q 1113 797 1227 642 
Q 1341 488 1509 420 
Q 1678 353 1897 353 
Q 2103 353 2253 425 
Q 2403 497 2503 656 
Q 2603 816 2651 1070 
Q 2700 1325 2700 1688 
z
" transform="scale(0.015625)"/>
        <path id="LiberationSans-65" d="M 863 1572 
Q 863 1306 917 1082 
Q 972 859 1086 698 
Q 1200 538 1378 448 
Q 1556 359 1806 359 
Q 2172 359 2392 506 
Q 2613 653 2691 878 
L 3184 738 
Q 3131 597 3036 455 
Q 2941 313 2781 198 
Q 2622 84 2383 10 
Q 2144 -63 1806 -63 
Q 1056 -63 664 384 
Q 272 831 272 1713 
Q 272 2188 390 2517 
Q 509 2847 715 3053 
Q 922 3259 1197 3351 
Q 1472 3444 1784 3444 
Q 2209 3444 2495 3306 
Q 2781 3169 2954 2926 
Q 3128 2684 3201 2356 
Q 3275 2028 3275 1647 
L 3275 1572 
L 863 1572 
z
M 2694 2003 
Q 2647 2538 2422 2783 
Q 2197 3028 1775 3028 
Q 1634 3028 1479 2983 
Q 1325 2938 1194 2822 
Q 1063 2706 972 2507 
Q 881 2309 869 2003 
L 2694 2003 
z
" transform="scale(0.015625)"/>
       </defs>
       <use xlink:href="#LiberationSans-53"/>
       <use xlink:href="#LiberationSans-63" x="66.699219"/>
       <use xlink:href="#LiberationSans-68" x="116.699219"/>
       <use xlink:href="#LiberationSans-61" x="172.314453"/>
       <use xlink:href="#LiberationSans-72" x="227.929688"/>
       <use xlink:href="#LiberationSans-62" x="261.230469"/>
       <use xlink:href="#LiberationSans-65" x="316.845703"/>
       <use xlink:href="#LiberationSans-72" x="372.460938"/>
      </g>
     </g>
    </g>
    <g id="xtick_2">
     <g id="line2d_2">
      <g>
       <use xlink:href="#m1abb3b3b9b" x="176.231195" y="311.512734" style="fill: #262626; stroke: #262626"/>
      </g>
     </g>
     <g id="text_2">
      <!-- Imamura -->
      <g style="fill: #262626" transform="translate(124.553003 377.927365) rotate(-45) scale(0.176 -0.176)">
       <defs>
        <path id="LiberationSans-49" d="M 591 0 
L 591 4403 
L 1188 4403 
L 1188 0 
L 591 0 
z
" transform="scale(0.015625)"/>
        <path id="LiberationSans-6d" d="M 2400 0 
L 2400 2144 
Q 2400 2391 2369 2556 
Q 2338 2722 2264 2823 
Q 2191 2925 2072 2967 
Q 1953 3009 1781 3009 
Q 1603 3009 1459 2939 
Q 1316 2869 1214 2736 
Q 1113 2603 1058 2408 
Q 1003 2213 1003 1959 
L 1003 0 
L 444 0 
L 444 2659 
Q 444 2766 442 2883 
Q 441 3000 437 3104 
Q 434 3209 431 3284 
Q 428 3359 425 3381 
L 956 3381 
Q 959 3366 962 3297 
Q 966 3228 970 3139 
Q 975 3050 978 2958 
Q 981 2866 981 2803 
L 991 2803 
Q 1066 2950 1153 3069 
Q 1241 3188 1358 3270 
Q 1475 3353 1626 3398 
Q 1778 3444 1978 3444 
Q 2363 3444 2586 3291 
Q 2809 3138 2897 2803 
L 2906 2803 
Q 2981 2950 3075 3069 
Q 3169 3188 3294 3270 
Q 3419 3353 3575 3398 
Q 3731 3444 3931 3444 
Q 4188 3444 4373 3375 
Q 4559 3306 4678 3162 
Q 4797 3019 4853 2792 
Q 4909 2566 4909 2253 
L 4909 0 
L 4353 0 
L 4353 2144 
Q 4353 2391 4322 2556 
Q 4291 2722 4217 2823 
Q 4144 2925 4025 2967 
Q 3906 3009 3734 3009 
Q 3556 3009 3412 2942 
Q 3269 2875 3167 2744 
Q 3066 2613 3011 2416 
Q 2956 2219 2956 1959 
L 2956 0 
L 2400 0 
z
" transform="scale(0.015625)"/>
        <path id="LiberationSans-75" d="M 981 3381 
L 981 1238 
Q 981 991 1017 825 
Q 1053 659 1134 557 
Q 1216 456 1348 414 
Q 1481 372 1678 372 
Q 1878 372 2039 442 
Q 2200 513 2314 645 
Q 2428 778 2490 973 
Q 2553 1169 2553 1422 
L 2553 3381 
L 3116 3381 
L 3116 722 
Q 3116 616 3117 498 
Q 3119 381 3122 276 
Q 3125 172 3128 97 
Q 3131 22 3134 0 
L 2603 0 
Q 2600 16 2597 84 
Q 2594 153 2589 242 
Q 2584 331 2581 423 
Q 2578 516 2578 578 
L 2569 578 
Q 2488 431 2391 312 
Q 2294 194 2166 111 
Q 2038 28 1872 -17 
Q 1706 -63 1488 -63 
Q 1206 -63 1003 6 
Q 800 75 669 219 
Q 538 363 477 588 
Q 416 813 416 1128 
L 416 3381 
L 981 3381 
z
" transform="scale(0.015625)"/>
       </defs>
       <use xlink:href="#LiberationSans-49"/>
       <use xlink:href="#LiberationSans-6d" x="27.783203"/>
       <use xlink:href="#LiberationSans-61" x="111.083984"/>
       <use xlink:href="#LiberationSans-6d" x="166.699219"/>
       <use xlink:href="#LiberationSans-75" x="250"/>
       <use xlink:href="#LiberationSans-72" x="305.615234"/>
       <use xlink:href="#LiberationSans-61" x="338.916016"/>
      </g>
     </g>
    </g>
    <g id="xtick_3">
     <g id="line2d_3">
      <g>
       <use xlink:href="#m1abb3b3b9b" x="250.635" y="311.512734" style="fill: #262626; stroke: #262626"/>
      </g>
     </g>
     <g id="text_3">
      <!-- Alharbi -->
      <g style="fill: #262626" transform="translate(209.315392 367.568781) rotate(-45) scale(0.176 -0.176)">
       <defs>
        <path id="LiberationSans-41" d="M 3647 0 
L 3144 1288 
L 1138 1288 
L 631 0 
L 13 0 
L 1809 4403 
L 2488 4403 
L 4256 0 
L 3647 0 
z
M 2400 3206 
Q 2350 3331 2304 3459 
Q 2259 3588 2225 3692 
Q 2191 3797 2167 3867 
Q 2144 3938 2141 3953 
Q 2134 3938 2112 3866 
Q 2091 3794 2055 3687 
Q 2019 3581 1973 3453 
Q 1928 3325 1881 3200 
L 1319 1753 
L 2966 1753 
L 2400 3206 
z
" transform="scale(0.015625)"/>
        <path id="LiberationSans-6c" d="M 431 0 
L 431 4638 
L 994 4638 
L 994 0 
L 431 0 
z
" transform="scale(0.015625)"/>
        <path id="LiberationSans-69" d="M 428 4100 
L 428 4638 
L 991 4638 
L 991 4100 
L 428 4100 
z
M 428 0 
L 428 3381 
L 991 3381 
L 991 0 
L 428 0 
z
" transform="scale(0.015625)"/>
       </defs>
       <use xlink:href="#LiberationSans-41"/>
       <use xlink:href="#LiberationSans-6c" x="66.699219"/>
       <use xlink:href="#LiberationSans-68" x="88.916016"/>
       <use xlink:href="#LiberationSans-61" x="144.53125"/>
       <use xlink:href="#LiberationSans-72" x="200.146484"/>
       <use xlink:href="#LiberationSans-62" x="233.447266"/>
       <use xlink:href="#LiberationSans-69" x="289.0625"/>
      </g>
     </g>
    </g>
    <g id="xtick_4">
     <g id="line2d_4">
      <g>
       <use xlink:href="#m1abb3b3b9b" x="325.038805" y="311.512734" style="fill: #262626; stroke: #262626"/>
      </g>
     </g>
     <g id="text_4">
      <!-- OPEP / B3LYP -->
      <g style="fill: #262626" transform="translate(239.891128 411.396851) rotate(-45) scale(0.176 -0.176)">
       <defs>
        <path id="LiberationSans-4f" d="M 4672 2222 
Q 4672 1706 4523 1284 
Q 4375 863 4094 563 
Q 3813 263 3406 100 
Q 3000 -63 2484 -63 
Q 1941 -63 1531 107 
Q 1122 278 850 583 
Q 578 888 440 1306 
Q 303 1725 303 2222 
Q 303 2738 447 3153 
Q 591 3569 869 3861 
Q 1147 4153 1555 4311 
Q 1963 4469 2491 4469 
Q 3016 4469 3423 4309 
Q 3831 4150 4107 3856 
Q 4384 3563 4528 3147 
Q 4672 2731 4672 2222 
z
M 4063 2222 
Q 4063 2619 3961 2944 
Q 3859 3269 3661 3500 
Q 3463 3731 3169 3856 
Q 2875 3981 2491 3981 
Q 2097 3981 1800 3856 
Q 1503 3731 1304 3500 
Q 1106 3269 1007 2944 
Q 909 2619 909 2222 
Q 909 1825 1011 1495 
Q 1113 1166 1311 927 
Q 1509 688 1804 555 
Q 2100 422 2484 422 
Q 2897 422 3195 556 
Q 3494 691 3686 930 
Q 3878 1169 3970 1500 
Q 4063 1831 4063 2222 
z
" transform="scale(0.015625)"/>
        <path id="LiberationSans-50" d="M 3931 3078 
Q 3931 2791 3836 2542 
Q 3741 2294 3552 2111 
Q 3363 1928 3078 1822 
Q 2794 1716 2416 1716 
L 1122 1716 
L 1122 0 
L 525 0 
L 525 4403 
L 2378 4403 
Q 2769 4403 3059 4308 
Q 3350 4213 3544 4039 
Q 3738 3866 3834 3620 
Q 3931 3375 3931 3078 
z
M 3331 3072 
Q 3331 3491 3075 3708 
Q 2819 3925 2306 3925 
L 1122 3925 
L 1122 2188 
L 2331 2188 
Q 2847 2188 3089 2416 
Q 3331 2644 3331 3072 
z
" transform="scale(0.015625)"/>
        <path id="LiberationSans-45" d="M 525 0 
L 525 4403 
L 3866 4403 
L 3866 3916 
L 1122 3916 
L 1122 2503 
L 3678 2503 
L 3678 2022 
L 1122 2022 
L 1122 488 
L 3994 488 
L 3994 0 
L 525 0 
z
" transform="scale(0.015625)"/>
        <path id="LiberationSans-20" transform="scale(0.015625)"/>
        <path id="LiberationSans-2f" d="M 0 -63 
L 1284 4638 
L 1778 4638 
L 506 -63 
L 0 -63 
z
" transform="scale(0.015625)"/>
        <path id="LiberationSans-42" d="M 3931 1241 
Q 3931 906 3800 670 
Q 3669 434 3447 286 
Q 3225 138 2931 69 
Q 2638 0 2313 0 
L 525 0 
L 525 4403 
L 2125 4403 
Q 2491 4403 2778 4342 
Q 3066 4281 3266 4150 
Q 3466 4019 3570 3817 
Q 3675 3616 3675 3334 
Q 3675 3150 3623 2987 
Q 3572 2825 3467 2692 
Q 3363 2559 3205 2464 
Q 3047 2369 2838 2322 
Q 3103 2291 3308 2200 
Q 3513 2109 3650 1968 
Q 3788 1828 3859 1642 
Q 3931 1456 3931 1241 
z
M 3075 3263 
Q 3075 3619 2831 3772 
Q 2588 3925 2125 3925 
L 1122 3925 
L 1122 2531 
L 2125 2531 
Q 2388 2531 2569 2582 
Q 2750 2634 2862 2729 
Q 2975 2825 3025 2959 
Q 3075 3094 3075 3263 
z
M 3328 1288 
Q 3328 1497 3251 1644 
Q 3175 1791 3031 1884 
Q 2888 1978 2686 2022 
Q 2484 2066 2234 2066 
L 1122 2066 
L 1122 478 
L 2281 478 
Q 2509 478 2701 515 
Q 2894 553 3033 647 
Q 3172 741 3250 897 
Q 3328 1053 3328 1288 
z
" transform="scale(0.015625)"/>
        <path id="LiberationSans-33" d="M 3278 1216 
Q 3278 913 3179 675 
Q 3081 438 2892 273 
Q 2703 109 2423 23 
Q 2144 -63 1784 -63 
Q 1375 -63 1095 39 
Q 816 141 634 308 
Q 453 475 362 689 
Q 272 903 244 1131 
L 825 1184 
Q 850 1009 917 865 
Q 984 722 1100 619 
Q 1216 516 1384 459 
Q 1553 403 1784 403 
Q 2209 403 2451 612 
Q 2694 822 2694 1234 
Q 2694 1478 2586 1626 
Q 2478 1775 2317 1858 
Q 2156 1941 1967 1969 
Q 1778 1997 1619 1997 
L 1300 1997 
L 1300 2484 
L 1606 2484 
Q 1766 2484 1937 2517 
Q 2109 2550 2251 2636 
Q 2394 2722 2486 2869 
Q 2578 3016 2578 3244 
Q 2578 3597 2370 3801 
Q 2163 4006 1753 4006 
Q 1381 4006 1151 3815 
Q 922 3625 884 3278 
L 319 3322 
Q 353 3613 478 3828 
Q 603 4044 795 4186 
Q 988 4328 1234 4398 
Q 1481 4469 1759 4469 
Q 2128 4469 2393 4376 
Q 2659 4284 2828 4126 
Q 2997 3969 3076 3756 
Q 3156 3544 3156 3303 
Q 3156 3109 3103 2940 
Q 3050 2772 2937 2637 
Q 2825 2503 2651 2406 
Q 2478 2309 2234 2259 
L 2234 2247 
Q 2500 2219 2697 2126 
Q 2894 2034 3022 1896 
Q 3150 1759 3214 1584 
Q 3278 1409 3278 1216 
z
" transform="scale(0.015625)"/>
        <path id="LiberationSans-4c" d="M 525 0 
L 525 4403 
L 1122 4403 
L 1122 488 
L 3347 488 
L 3347 0 
L 525 0 
z
" transform="scale(0.015625)"/>
        <path id="LiberationSans-59" d="M 2428 1825 
L 2428 0 
L 1834 0 
L 1834 1825 
L 141 4403 
L 797 4403 
L 2138 2306 
L 3472 4403 
L 4128 4403 
L 2428 1825 
z
" transform="scale(0.015625)"/>
       </defs>
       <use xlink:href="#LiberationSans-4f"/>
       <use xlink:href="#LiberationSans-50" x="77.783203"/>
       <use xlink:href="#LiberationSans-45" x="144.482422"/>
       <use xlink:href="#LiberationSans-50" x="211.181641"/>
       <use xlink:href="#LiberationSans-20" x="276.130859"/>
       <use xlink:href="#LiberationSans-2f" x="303.914062"/>
       <use xlink:href="#LiberationSans-20" x="331.697266"/>
       <use xlink:href="#LiberationSans-42" x="359.480469"/>
       <use xlink:href="#LiberationSans-33" x="426.179688"/>
       <use xlink:href="#LiberationSans-4c" x="481.794922"/>
       <use xlink:href="#LiberationSans-59" x="530.035156"/>
       <use xlink:href="#LiberationSans-50" x="596.734375"/>
      </g>
     </g>
    </g>
    <g id="xtick_5">
     <g id="line2d_5">
      <g>
       <use xlink:href="#m1abb3b3b9b" x="399.442611" y="311.512734" style="fill: #262626; stroke: #262626"/>
      </g>
     </g>
     <g id="text_5">
      <!-- OPEP / sTD-DFT -->
      <g style="fill: #262626" transform="translate(300.976754 424.71503) rotate(-45) scale(0.176 -0.176)">
       <defs>
        <path id="LiberationSans-73" d="M 2969 934 
Q 2969 697 2876 511 
Q 2784 325 2609 198 
Q 2434 72 2179 4 
Q 1925 -63 1597 -63 
Q 1303 -63 1067 -17 
Q 831 28 653 128 
Q 475 228 354 392 
Q 234 556 178 794 
L 675 891 
Q 747 619 972 492 
Q 1197 366 1597 366 
Q 1778 366 1929 391 
Q 2081 416 2190 477 
Q 2300 538 2361 639 
Q 2422 741 2422 891 
Q 2422 1044 2350 1142 
Q 2278 1241 2150 1306 
Q 2022 1372 1839 1420 
Q 1656 1469 1438 1528 
Q 1234 1581 1034 1647 
Q 834 1713 673 1820 
Q 513 1928 413 2087 
Q 313 2247 313 2488 
Q 313 2950 642 3192 
Q 972 3434 1603 3434 
Q 2163 3434 2492 3237 
Q 2822 3041 2909 2606 
L 2403 2544 
Q 2375 2675 2300 2764 
Q 2225 2853 2119 2908 
Q 2013 2963 1880 2986 
Q 1747 3009 1603 3009 
Q 1222 3009 1040 2893 
Q 859 2778 859 2544 
Q 859 2406 926 2317 
Q 994 2228 1114 2167 
Q 1234 2106 1403 2061 
Q 1572 2016 1775 1966 
Q 1909 1931 2050 1892 
Q 2191 1853 2323 1798 
Q 2456 1744 2573 1670 
Q 2691 1597 2778 1494 
Q 2866 1391 2917 1253 
Q 2969 1116 2969 934 
z
" transform="scale(0.015625)"/>
        <path id="LiberationSans-54" d="M 2250 3916 
L 2250 0 
L 1656 0 
L 1656 3916 
L 144 3916 
L 144 4403 
L 3763 4403 
L 3763 3916 
L 2250 3916 
z
" transform="scale(0.015625)"/>
        <path id="LiberationSans-44" d="M 4316 2247 
Q 4316 1697 4150 1276 
Q 3984 856 3696 573 
Q 3409 291 3017 145 
Q 2625 0 2172 0 
L 525 0 
L 525 4403 
L 1981 4403 
Q 2491 4403 2920 4276 
Q 3350 4150 3659 3886 
Q 3969 3622 4142 3215 
Q 4316 2809 4316 2247 
z
M 3716 2247 
Q 3716 2694 3587 3011 
Q 3459 3328 3228 3531 
Q 2997 3734 2675 3829 
Q 2353 3925 1969 3925 
L 1122 3925 
L 1122 478 
L 2103 478 
Q 2450 478 2745 590 
Q 3041 703 3256 925 
Q 3472 1147 3594 1478 
Q 3716 1809 3716 2247 
z
" transform="scale(0.015625)"/>
        <path id="LiberationSans-2d" d="M 284 1450 
L 284 1950 
L 1847 1950 
L 1847 1450 
L 284 1450 
z
" transform="scale(0.015625)"/>
        <path id="LiberationSans-46" d="M 1122 3916 
L 1122 2278 
L 3578 2278 
L 3578 1784 
L 1122 1784 
L 1122 0 
L 525 0 
L 525 4403 
L 3653 4403 
L 3653 3916 
L 1122 3916 
z
" transform="scale(0.015625)"/>
       </defs>
       <use xlink:href="#LiberationSans-4f"/>
       <use xlink:href="#LiberationSans-50" x="77.783203"/>
       <use xlink:href="#LiberationSans-45" x="144.482422"/>
       <use xlink:href="#LiberationSans-50" x="211.181641"/>
       <use xlink:href="#LiberationSans-20" x="276.130859"/>
       <use xlink:href="#LiberationSans-2f" x="303.914062"/>
       <use xlink:href="#LiberationSans-20" x="331.697266"/>
       <use xlink:href="#LiberationSans-73" x="359.480469"/>
       <use xlink:href="#LiberationSans-54" x="409.480469"/>
       <use xlink:href="#LiberationSans-44" x="470.564453"/>
       <use xlink:href="#LiberationSans-2d" x="542.78125"/>
       <use xlink:href="#LiberationSans-44" x="576.082031"/>
       <use xlink:href="#LiberationSans-46" x="648.298828"/>
       <use xlink:href="#LiberationSans-54" x="709.382812"/>
      </g>
     </g>
    </g>
   </g>
   <g id="matplotlib.axis_2">
    <g id="ytick_1">
     <g id="line2d_6">
      <defs>
       <path id="me362642a15" d="M 0 0 
L -4.8 0 
" style="stroke: #262626"/>
      </defs>
      <g>
       <use xlink:href="#me362642a15" x="74.67" y="311.512734" style="fill: #262626; stroke: #262626"/>
      </g>
     </g>
     <g id="text_6">
      <!-- 0 -->
      <g style="fill: #262626" transform="translate(56.58275 317.889984) scale(0.176 -0.176)">
       <defs>
        <path id="LiberationSans-30" d="M 3309 2203 
Q 3309 1569 3189 1136 
Q 3069 703 2861 436 
Q 2653 169 2372 53 
Q 2091 -63 1772 -63 
Q 1450 -63 1172 53 
Q 894 169 689 434 
Q 484 700 367 1133 
Q 250 1566 250 2203 
Q 250 2869 367 3305 
Q 484 3741 690 4000 
Q 897 4259 1178 4364 
Q 1459 4469 1791 4469 
Q 2106 4469 2382 4364 
Q 2659 4259 2865 4000 
Q 3072 3741 3190 3305 
Q 3309 2869 3309 2203 
z
M 2738 2203 
Q 2738 2728 2675 3076 
Q 2613 3425 2491 3633 
Q 2369 3841 2192 3927 
Q 2016 4013 1791 4013 
Q 1553 4013 1372 3925 
Q 1191 3838 1067 3630 
Q 944 3422 881 3073 
Q 819 2725 819 2203 
Q 819 1697 883 1350 
Q 947 1003 1070 792 
Q 1194 581 1372 489 
Q 1550 397 1778 397 
Q 2000 397 2178 489 
Q 2356 581 2479 792 
Q 2603 1003 2670 1350 
Q 2738 1697 2738 2203 
z
" transform="scale(0.015625)"/>
       </defs>
       <use xlink:href="#LiberationSans-30"/>
      </g>
     </g>
    </g>
    <g id="ytick_2">
     <g id="line2d_7">
      <g>
       <use xlink:href="#me362642a15" x="74.67" y="237.77989" style="fill: #262626; stroke: #262626"/>
      </g>
     </g>
     <g id="text_7">
      <!-- 2 -->
      <g style="fill: #262626" transform="translate(56.58275 244.15714) scale(0.176 -0.176)">
       <defs>
        <path id="LiberationSans-32" d="M 322 0 
L 322 397 
Q 481 763 711 1042 
Q 941 1322 1194 1548 
Q 1447 1775 1695 1969 
Q 1944 2163 2144 2356 
Q 2344 2550 2467 2762 
Q 2591 2975 2591 3244 
Q 2591 3431 2534 3573 
Q 2478 3716 2372 3812 
Q 2266 3909 2117 3957 
Q 1969 4006 1788 4006 
Q 1619 4006 1470 3959 
Q 1322 3913 1206 3819 
Q 1091 3725 1017 3586 
Q 944 3447 922 3263 
L 347 3316 
Q 375 3553 478 3762 
Q 581 3972 762 4130 
Q 944 4288 1198 4378 
Q 1453 4469 1788 4469 
Q 2116 4469 2372 4391 
Q 2628 4313 2804 4159 
Q 2981 4006 3075 3781 
Q 3169 3556 3169 3263 
Q 3169 3041 3089 2841 
Q 3009 2641 2876 2459 
Q 2744 2278 2569 2109 
Q 2394 1941 2203 1780 
Q 2013 1619 1819 1461 
Q 1625 1303 1454 1143 
Q 1284 984 1150 820 
Q 1016 656 941 478 
L 3238 478 
L 3238 0 
L 322 0 
z
" transform="scale(0.015625)"/>
       </defs>
       <use xlink:href="#LiberationSans-32"/>
      </g>
     </g>
    </g>
    <g id="ytick_3">
     <g id="line2d_8">
      <g>
       <use xlink:href="#me362642a15" x="74.67" y="164.047046" style="fill: #262626; stroke: #262626"/>
      </g>
     </g>
     <g id="text_8">
      <!-- 4 -->
      <g style="fill: #262626" transform="translate(56.58275 170.424296) scale(0.176 -0.176)">
       <defs>
        <path id="LiberationSans-34" d="M 2753 997 
L 2753 0 
L 2222 0 
L 2222 997 
L 147 997 
L 147 1434 
L 2163 4403 
L 2753 4403 
L 2753 1441 
L 3372 1441 
L 3372 997 
L 2753 997 
z
M 2222 3769 
Q 2216 3753 2191 3708 
Q 2166 3663 2134 3606 
Q 2103 3550 2070 3492 
Q 2038 3434 2013 3397 
L 884 1734 
Q 869 1709 839 1668 
Q 809 1628 778 1586 
Q 747 1544 715 1503 
Q 684 1463 666 1441 
L 2222 1441 
L 2222 3769 
z
" transform="scale(0.015625)"/>
       </defs>
       <use xlink:href="#LiberationSans-34"/>
      </g>
     </g>
    </g>
    <g id="ytick_4">
     <g id="line2d_9">
      <g>
       <use xlink:href="#me362642a15" x="74.67" y="90.314203" style="fill: #262626; stroke: #262626"/>
      </g>
     </g>
     <g id="text_9">
      <!-- 6 -->
      <g style="fill: #262626" transform="translate(56.58275 96.691453) scale(0.176 -0.176)">
       <defs>
        <path id="LiberationSans-36" d="M 3278 1441 
Q 3278 1109 3186 832 
Q 3094 556 2914 357 
Q 2734 159 2468 48 
Q 2203 -63 1856 -63 
Q 1472 -63 1184 84 
Q 897 231 706 507 
Q 516 784 420 1186 
Q 325 1588 325 2100 
Q 325 2688 433 3131 
Q 541 3575 744 3872 
Q 947 4169 1239 4319 
Q 1531 4469 1900 4469 
Q 2125 4469 2322 4422 
Q 2519 4375 2680 4270 
Q 2841 4166 2962 3994 
Q 3084 3822 3156 3572 
L 2619 3475 
Q 2531 3759 2339 3886 
Q 2147 4013 1894 4013 
Q 1663 4013 1475 3903 
Q 1288 3794 1156 3576 
Q 1025 3359 954 3031 
Q 884 2703 884 2266 
Q 1038 2550 1316 2698 
Q 1594 2847 1953 2847 
Q 2253 2847 2497 2750 
Q 2741 2653 2914 2470 
Q 3088 2288 3183 2027 
Q 3278 1766 3278 1441 
z
M 2706 1416 
Q 2706 1644 2650 1828 
Q 2594 2013 2481 2142 
Q 2369 2272 2203 2342 
Q 2038 2413 1819 2413 
Q 1666 2413 1509 2367 
Q 1353 2322 1226 2220 
Q 1100 2119 1020 1953 
Q 941 1788 941 1550 
Q 941 1306 1003 1095 
Q 1066 884 1183 728 
Q 1300 572 1465 481 
Q 1631 391 1838 391 
Q 2041 391 2202 461 
Q 2363 531 2475 664 
Q 2588 797 2647 987 
Q 2706 1178 2706 1416 
z
" transform="scale(0.015625)"/>
       </defs>
       <use xlink:href="#LiberationSans-36"/>
      </g>
     </g>
    </g>
    <g id="text_10">
     <!-- % -->
     <g style="fill: #262626" transform="translate(48.59875 179.532867) rotate(-90) scale(0.192 -0.192)">
      <defs>
       <path id="LiberationSans-25" d="M 5463 1356 
Q 5463 966 5383 698 
Q 5303 431 5167 267 
Q 5031 103 4850 32 
Q 4669 -38 4463 -38 
Q 4256 -38 4076 32 
Q 3897 103 3764 265 
Q 3631 428 3554 695 
Q 3478 963 3478 1356 
Q 3478 1772 3553 2044 
Q 3628 2316 3762 2477 
Q 3897 2638 4080 2702 
Q 4263 2766 4475 2766 
Q 4681 2766 4861 2702 
Q 5041 2638 5173 2477 
Q 5306 2316 5384 2044 
Q 5463 1772 5463 1356 
z
M 1647 0 
L 1163 0 
L 4044 4403 
L 4534 4403 
L 1647 0 
z
M 1231 4441 
Q 1431 4441 1609 4377 
Q 1788 4313 1922 4153 
Q 2056 3994 2132 3725 
Q 2209 3456 2209 3047 
Q 2209 2653 2131 2384 
Q 2053 2116 1920 1948 
Q 1788 1781 1606 1709 
Q 1425 1638 1219 1638 
Q 1009 1638 828 1709 
Q 647 1781 514 1947 
Q 381 2113 304 2381 
Q 228 2650 228 3047 
Q 228 3456 304 3725 
Q 381 3994 515 4153 
Q 650 4313 834 4377 
Q 1019 4441 1231 4441 
z
M 5000 1356 
Q 5000 1666 4965 1870 
Q 4931 2075 4864 2197 
Q 4797 2319 4698 2369 
Q 4600 2419 4475 2419 
Q 4344 2419 4244 2367 
Q 4144 2316 4075 2194 
Q 4006 2072 3972 1867 
Q 3938 1663 3938 1356 
Q 3938 1059 3973 859 
Q 4009 659 4076 536 
Q 4144 413 4242 359 
Q 4341 306 4469 306 
Q 4591 306 4689 359 
Q 4788 413 4856 536 
Q 4925 659 4962 859 
Q 5000 1059 5000 1356 
z
M 1750 3047 
Q 1750 3353 1715 3556 
Q 1681 3759 1615 3881 
Q 1550 4003 1453 4053 
Q 1356 4103 1231 4103 
Q 1097 4103 995 4051 
Q 894 4000 825 3878 
Q 756 3756 722 3553 
Q 688 3350 688 3047 
Q 688 2750 723 2547 
Q 759 2344 826 2220 
Q 894 2097 994 2044 
Q 1094 1991 1225 1991 
Q 1344 1991 1441 2044 
Q 1538 2097 1606 2220 
Q 1675 2344 1712 2547 
Q 1750 2750 1750 3047 
z
" transform="scale(0.015625)"/>
      </defs>
      <use xlink:href="#LiberationSans-25"/>
     </g>
    </g>
   </g>
   <g id="patch_3">
    <path d="M 90.666818 311.512734 
L 112.98796 311.512734 
L 112.98796 64.876372 
L 90.666818 64.876372 
z
" clip-path="url(#p4fef09fb83)" style="fill: #b22222"/>
   </g>
   <g id="patch_4">
    <path d="M 165.070624 311.512734 
L 187.391765 311.512734 
L 187.391765 64.876372 
L 165.070624 64.876372 
z
" clip-path="url(#p4fef09fb83)" style="fill: #b22222"/>
   </g>
   <g id="patch_5">
    <path d="M 239.474429 311.512734 
L 261.795571 311.512734 
L 261.795571 87.364889 
L 239.474429 87.364889 
z
" clip-path="url(#p4fef09fb83)" style="fill: #b22222"/>
   </g>
   <g id="patch_6">
    <path d="M 313.878235 311.512734 
L 336.199376 311.512734 
L 336.199376 135.217505 
L 313.878235 135.217505 
z
" clip-path="url(#p4fef09fb83)" style="fill: #b22222"/>
   </g>
   <g id="patch_7">
    <path d="M 388.28204 311.512734 
L 410.603182 311.512734 
L 410.603182 135.217505 
L 388.28204 135.217505 
z
" clip-path="url(#p4fef09fb83)" style="fill: #b22222"/>
   </g>
   <g id="LineCollection_1">
    <path d="M 101.827389 85.890232 
L 101.827389 43.862511 
" clip-path="url(#p4fef09fb83)" style="fill: none; stroke: #000000; stroke-width: 1.2"/>
    <path d="M 176.231195 85.890232 
L 176.231195 43.862511 
" clip-path="url(#p4fef09fb83)" style="fill: none; stroke: #000000; stroke-width: 1.2"/>
    <path d="M 250.635 111.328063 
L 250.635 63.401715 
" clip-path="url(#p4fef09fb83)" style="fill: none; stroke: #000000; stroke-width: 1.2"/>
    <path d="M 325.038805 136.672991 
L 325.038805 133.762018 
" clip-path="url(#p4fef09fb83)" style="fill: none; stroke: #000000; stroke-width: 1.2"/>
    <path d="M 399.442611 136.672991 
L 399.442611 133.762018 
" clip-path="url(#p4fef09fb83)" style="fill: none; stroke: #000000; stroke-width: 1.2"/>
   </g>
   <g id="patch_8">
    <path d="M 74.67 311.512734 
L 74.67 30.48 
" style="fill: none; stroke: #262626; stroke-linejoin: miter; stroke-linecap: square"/>
   </g>
   <g id="patch_9">
    <path d="M 426.6 311.512734 
L 426.6 30.48 
" style="fill: none; stroke: #262626; stroke-linejoin: miter; stroke-linecap: square"/>
   </g>
   <g id="patch_10">
    <path d="M 74.67 311.512734 
L 426.6 311.512734 
" style="fill: none; stroke: #262626; stroke-linejoin: miter; stroke-linecap: square"/>
   </g>
   <g id="patch_11">
    <path d="M 74.67 30.48 
L 426.6 30.48 
" style="fill: none; stroke: #262626; stroke-linejoin: miter; stroke-linecap: square"/>
   </g>
   <g id="text_11">
    <!-- FF -->
    <g style="fill: #262626" transform="translate(238.908 24.48) scale(0.192 -0.192)">
     <defs>
      <path id="LiberationSans-Bold-46" d="M 1350 3691 
L 1350 2328 
L 3603 2328 
L 3603 1616 
L 1350 1616 
L 1350 0 
L 428 0 
L 428 4403 
L 3675 4403 
L 3675 3691 
L 1350 3691 
z
" transform="scale(0.015625)"/>
     </defs>
     <use xlink:href="#LiberationSans-Bold-46"/>
     <use xlink:href="#LiberationSans-Bold-46" x="61.083984"/>
    </g>
   </g>
   <g id="legend_1">
    <g id="patch_12">
     <path d="M 311.6005 59.0745 
L 346.8005 59.0745 
L 346.8005 46.7545 
L 311.6005 46.7545 
z
" style="fill: #b22222"/>
    </g>
    <g id="text_12">
     <!-- MAPE -->
     <g style="fill: #262626" transform="translate(360.8805 59.0745) scale(0.176 -0.176)">
      <defs>
       <path id="LiberationSans-4d" d="M 4269 0 
L 4269 2938 
Q 4269 3097 4272 3262 
Q 4275 3428 4281 3566 
Q 4288 3725 4297 3875 
Q 4253 3716 4206 3559 
Q 4166 3425 4117 3273 
Q 4069 3122 4022 3000 
L 2884 0 
L 2466 0 
L 1313 3000 
Q 1294 3047 1273 3109 
Q 1253 3172 1229 3242 
Q 1206 3313 1182 3386 
Q 1159 3459 1138 3531 
Q 1084 3697 1034 3875 
Q 1038 3700 1044 3528 
Q 1050 3381 1053 3220 
Q 1056 3059 1056 2938 
L 1056 0 
L 525 0 
L 525 4403 
L 1309 4403 
L 2481 1350 
Q 2503 1288 2534 1189 
Q 2566 1091 2594 987 
Q 2622 884 2645 792 
Q 2669 700 2678 650 
Q 2688 700 2713 794 
Q 2738 888 2770 991 
Q 2803 1094 2834 1191 
Q 2866 1288 2891 1350 
L 4041 4403 
L 4806 4403 
L 4806 0 
L 4269 0 
z
" transform="scale(0.015625)"/>
      </defs>
      <use xlink:href="#LiberationSans-4d"/>
      <use xlink:href="#LiberationSans-41" x="83.300781"/>
      <use xlink:href="#LiberationSans-50" x="150"/>
      <use xlink:href="#LiberationSans-45" x="216.699219"/>
     </g>
    </g>
   </g>
  </g>
  <g id="axes_2">
   <g id="patch_13">
    <path d="M 501.27 311.512734 
L 853.2 311.512734 
L 853.2 30.48 
L 501.27 30.48 
z
" style="fill: #ffffff"/>
   </g>
   <g id="matplotlib.axis_3">
    <g id="xtick_6">
     <g id="line2d_10">
      <g>
       <use xlink:href="#m1abb3b3b9b" x="528.427389" y="311.512734" style="fill: #262626; stroke: #262626"/>
      </g>
     </g>
     <g id="text_13">
      <!-- Scharber -->
      <g style="fill: #262626" transform="translate(475.35107 379.325492) rotate(-45) scale(0.176 -0.176)">
       <use xlink:href="#LiberationSans-53"/>
       <use xlink:href="#LiberationSans-63" x="66.699219"/>
       <use xlink:href="#LiberationSans-68" x="116.699219"/>
       <use xlink:href="#LiberationSans-61" x="172.314453"/>
       <use xlink:href="#LiberationSans-72" x="227.929688"/>
       <use xlink:href="#LiberationSans-62" x="261.230469"/>
       <use xlink:href="#LiberationSans-65" x="316.845703"/>
       <use xlink:href="#LiberationSans-72" x="372.460938"/>
      </g>
     </g>
    </g>
    <g id="xtick_7">
     <g id="line2d_11">
      <g>
       <use xlink:href="#m1abb3b3b9b" x="602.831195" y="311.512734" style="fill: #262626; stroke: #262626"/>
      </g>
     </g>
     <g id="text_14">
      <!-- Imamura -->
      <g style="fill: #262626" transform="translate(551.153003 377.927365) rotate(-45) scale(0.176 -0.176)">
       <use xlink:href="#LiberationSans-49"/>
       <use xlink:href="#LiberationSans-6d" x="27.783203"/>
       <use xlink:href="#LiberationSans-61" x="111.083984"/>
       <use xlink:href="#LiberationSans-6d" x="166.699219"/>
       <use xlink:href="#LiberationSans-75" x="250"/>
       <use xlink:href="#LiberationSans-72" x="305.615234"/>
       <use xlink:href="#LiberationSans-61" x="338.916016"/>
      </g>
     </g>
    </g>
    <g id="xtick_8">
     <g id="line2d_12">
      <g>
       <use xlink:href="#m1abb3b3b9b" x="677.235" y="311.512734" style="fill: #262626; stroke: #262626"/>
      </g>
     </g>
     <g id="text_15">
      <!-- Alharbi -->
      <g style="fill: #262626" transform="translate(635.915392 367.568781) rotate(-45) scale(0.176 -0.176)">
       <use xlink:href="#LiberationSans-41"/>
       <use xlink:href="#LiberationSans-6c" x="66.699219"/>
       <use xlink:href="#LiberationSans-68" x="88.916016"/>
       <use xlink:href="#LiberationSans-61" x="144.53125"/>
       <use xlink:href="#LiberationSans-72" x="200.146484"/>
       <use xlink:href="#LiberationSans-62" x="233.447266"/>
       <use xlink:href="#LiberationSans-69" x="289.0625"/>
      </g>
     </g>
    </g>
    <g id="xtick_9">
     <g id="line2d_13">
      <g>
       <use xlink:href="#m1abb3b3b9b" x="751.638805" y="311.512734" style="fill: #262626; stroke: #262626"/>
      </g>
     </g>
     <g id="text_16">
      <!-- OPEP / B3LYP -->
      <g style="fill: #262626" transform="translate(666.491128 411.396851) rotate(-45) scale(0.176 -0.176)">
       <use xlink:href="#LiberationSans-4f"/>
       <use xlink:href="#LiberationSans-50" x="77.783203"/>
       <use xlink:href="#LiberationSans-45" x="144.482422"/>
       <use xlink:href="#LiberationSans-50" x="211.181641"/>
       <use xlink:href="#LiberationSans-20" x="276.130859"/>
       <use xlink:href="#LiberationSans-2f" x="303.914062"/>
       <use xlink:href="#LiberationSans-20" x="331.697266"/>
       <use xlink:href="#LiberationSans-42" x="359.480469"/>
       <use xlink:href="#LiberationSans-33" x="426.179688"/>
       <use xlink:href="#LiberationSans-4c" x="481.794922"/>
       <use xlink:href="#LiberationSans-59" x="530.035156"/>
       <use xlink:href="#LiberationSans-50" x="596.734375"/>
      </g>
     </g>
    </g>
    <g id="xtick_10">
     <g id="line2d_14">
      <g>
       <use xlink:href="#m1abb3b3b9b" x="826.042611" y="311.512734" style="fill: #262626; stroke: #262626"/>
      </g>
     </g>
     <g id="text_17">
      <!-- OPEP / sTD-DFT -->
      <g style="fill: #262626" transform="translate(727.576754 424.71503) rotate(-45) scale(0.176 -0.176)">
       <use xlink:href="#LiberationSans-4f"/>
       <use xlink:href="#LiberationSans-50" x="77.783203"/>
       <use xlink:href="#LiberationSans-45" x="144.482422"/>
       <use xlink:href="#LiberationSans-50" x="211.181641"/>
       <use xlink:href="#LiberationSans-20" x="276.130859"/>
       <use xlink:href="#LiberationSans-2f" x="303.914062"/>
       <use xlink:href="#LiberationSans-20" x="331.697266"/>
       <use xlink:href="#LiberationSans-73" x="359.480469"/>
       <use xlink:href="#LiberationSans-54" x="409.480469"/>
       <use xlink:href="#LiberationSans-44" x="470.564453"/>
       <use xlink:href="#LiberationSans-2d" x="542.78125"/>
       <use xlink:href="#LiberationSans-44" x="576.082031"/>
       <use xlink:href="#LiberationSans-46" x="648.298828"/>
       <use xlink:href="#LiberationSans-54" x="709.382812"/>
      </g>
     </g>
    </g>
   </g>
   <g id="matplotlib.axis_4">
    <g id="ytick_5">
     <g id="line2d_15">
      <g>
       <use xlink:href="#me362642a15" x="501.27" y="311.512734" style="fill: #262626; stroke: #262626"/>
      </g>
     </g>
     <g id="text_18">
      <!-- 0 -->
      <g style="fill: #262626" transform="translate(483.18275 317.889984) scale(0.176 -0.176)">
       <use xlink:href="#LiberationSans-30"/>
      </g>
     </g>
    </g>
    <g id="ytick_6">
     <g id="line2d_16">
      <g>
       <use xlink:href="#me362642a15" x="501.27" y="253.517019" style="fill: #262626; stroke: #262626"/>
      </g>
     </g>
     <g id="text_19">
      <!-- 2 -->
      <g style="fill: #262626" transform="translate(483.18275 259.894269) scale(0.176 -0.176)">
       <use xlink:href="#LiberationSans-32"/>
      </g>
     </g>
    </g>
    <g id="ytick_7">
     <g id="line2d_17">
      <g>
       <use xlink:href="#me362642a15" x="501.27" y="195.521305" style="fill: #262626; stroke: #262626"/>
      </g>
     </g>
     <g id="text_20">
      <!-- 4 -->
      <g style="fill: #262626" transform="translate(483.18275 201.898555) scale(0.176 -0.176)">
       <use xlink:href="#LiberationSans-34"/>
      </g>
     </g>
    </g>
    <g id="ytick_8">
     <g id="line2d_18">
      <g>
       <use xlink:href="#me362642a15" x="501.27" y="137.52559" style="fill: #262626; stroke: #262626"/>
      </g>
     </g>
     <g id="text_21">
      <!-- 6 -->
      <g style="fill: #262626" transform="translate(483.18275 143.90284) scale(0.176 -0.176)">
       <use xlink:href="#LiberationSans-36"/>
      </g>
     </g>
    </g>
    <g id="ytick_9">
     <g id="line2d_19">
      <g>
       <use xlink:href="#me362642a15" x="501.27" y="79.529876" style="fill: #262626; stroke: #262626"/>
      </g>
     </g>
     <g id="text_22">
      <!-- 8 -->
      <g style="fill: #262626" transform="translate(483.18275 85.907126) scale(0.176 -0.176)">
       <defs>
        <path id="LiberationSans-38" d="M 3281 1228 
Q 3281 947 3192 711 
Q 3103 475 2920 303 
Q 2738 131 2453 34 
Q 2169 -63 1781 -63 
Q 1394 -63 1111 34 
Q 828 131 642 301 
Q 456 472 367 708 
Q 278 944 278 1222 
Q 278 1463 351 1650 
Q 425 1838 548 1973 
Q 672 2109 830 2192 
Q 988 2275 1156 2303 
L 1156 2316 
Q 972 2359 826 2456 
Q 681 2553 582 2689 
Q 484 2825 432 2990 
Q 381 3156 381 3341 
Q 381 3572 470 3776 
Q 559 3981 734 4136 
Q 909 4291 1168 4380 
Q 1428 4469 1769 4469 
Q 2128 4469 2392 4378 
Q 2656 4288 2829 4133 
Q 3003 3978 3087 3772 
Q 3172 3566 3172 3334 
Q 3172 3153 3120 2987 
Q 3069 2822 2970 2686 
Q 2872 2550 2726 2454 
Q 2581 2359 2391 2322 
L 2391 2309 
Q 2581 2278 2743 2195 
Q 2906 2113 3025 1977 
Q 3144 1841 3212 1653 
Q 3281 1466 3281 1228 
z
M 2588 3303 
Q 2588 3469 2545 3606 
Q 2503 3744 2406 3842 
Q 2309 3941 2153 3995 
Q 1997 4050 1769 4050 
Q 1547 4050 1394 3995 
Q 1241 3941 1142 3842 
Q 1044 3744 1000 3606 
Q 956 3469 956 3303 
Q 956 3172 990 3034 
Q 1025 2897 1115 2784 
Q 1206 2672 1365 2600 
Q 1525 2528 1775 2528 
Q 2041 2528 2202 2600 
Q 2363 2672 2448 2784 
Q 2534 2897 2561 3034 
Q 2588 3172 2588 3303 
z
M 2697 1281 
Q 2697 1441 2653 1589 
Q 2609 1738 2503 1852 
Q 2397 1966 2217 2036 
Q 2038 2106 1769 2106 
Q 1522 2106 1348 2036 
Q 1175 1966 1067 1850 
Q 959 1734 909 1582 
Q 859 1431 859 1269 
Q 859 1066 909 898 
Q 959 731 1068 611 
Q 1178 491 1356 425 
Q 1534 359 1788 359 
Q 2044 359 2219 425 
Q 2394 491 2500 611 
Q 2606 731 2651 901 
Q 2697 1072 2697 1281 
z
" transform="scale(0.015625)"/>
       </defs>
       <use xlink:href="#LiberationSans-38"/>
      </g>
     </g>
    </g>
    <g id="text_23">
     <!-- % -->
     <g style="fill: #262626" transform="translate(475.19875 179.532867) rotate(-90) scale(0.192 -0.192)">
      <use xlink:href="#LiberationSans-25"/>
     </g>
    </g>
   </g>
   <g id="patch_14">
    <path d="M 517.266818 311.512734 
L 539.58796 311.512734 
L 539.58796 103.01814 
L 517.266818 103.01814 
z
" clip-path="url(#p0964a1ee35)" style="fill: #b22222"/>
   </g>
   <g id="patch_15">
    <path d="M 591.670624 311.512734 
L 613.991765 311.512734 
L 613.991765 103.01814 
L 591.670624 103.01814 
z
" clip-path="url(#p0964a1ee35)" style="fill: #b22222"/>
   </g>
   <g id="patch_16">
    <path d="M 666.074429 311.512734 
L 688.395571 311.512734 
L 688.395571 56.33159 
L 666.074429 56.33159 
z
" clip-path="url(#p0964a1ee35)" style="fill: #b22222"/>
   </g>
   <g id="patch_17">
    <path d="M 740.478235 311.512734 
L 762.799376 311.512734 
L 762.799376 136.623757 
L 740.478235 136.623757 
z
" clip-path="url(#p0964a1ee35)" style="fill: #b22222"/>
   </g>
   <g id="patch_18">
    <path d="M 814.88204 311.512734 
L 837.203182 311.512734 
L 837.203182 146.993391 
L 814.88204 146.993391 
z
" clip-path="url(#p0964a1ee35)" style="fill: #b22222"/>
   </g>
   <g id="LineCollection_2">
    <path d="M 528.427389 121.576769 
L 528.427389 84.459511 
" clip-path="url(#p0964a1ee35)" style="fill: none; stroke: #000000; stroke-width: 1.2"/>
    <path d="M 602.831195 121.576769 
L 602.831195 84.459511 
" clip-path="url(#p0964a1ee35)" style="fill: none; stroke: #000000; stroke-width: 1.2"/>
    <path d="M 677.235 68.800668 
L 677.235 43.862511 
" clip-path="url(#p0964a1ee35)" style="fill: none; stroke: #000000; stroke-width: 1.2"/>
    <path d="M 751.638805 138.672455 
L 751.638805 134.575058 
" clip-path="url(#p0964a1ee35)" style="fill: none; stroke: #000000; stroke-width: 1.2"/>
    <path d="M 826.042611 152.344945 
L 826.042611 141.641836 
" clip-path="url(#p0964a1ee35)" style="fill: none; stroke: #000000; stroke-width: 1.2"/>
   </g>
   <g id="patch_19">
    <path d="M 501.27 311.512734 
L 501.27 30.48 
" style="fill: none; stroke: #262626; stroke-linejoin: miter; stroke-linecap: square"/>
   </g>
   <g id="patch_20">
    <path d="M 853.2 311.512734 
L 853.2 30.48 
" style="fill: none; stroke: #262626; stroke-linejoin: miter; stroke-linecap: square"/>
   </g>
   <g id="patch_21">
    <path d="M 501.27 311.512734 
L 853.2 311.512734 
" style="fill: none; stroke: #262626; stroke-linejoin: miter; stroke-linecap: square"/>
   </g>
   <g id="patch_22">
    <path d="M 501.27 30.48 
L 853.2 30.48 
" style="fill: none; stroke: #262626; stroke-linejoin: miter; stroke-linecap: square"/>
   </g>
   <g id="text_24">
    <!-- Voc -->
    <g style="fill: #262626" transform="translate(660.3375 24.48) scale(0.192 -0.192)">
     <defs>
      <path id="LiberationSans-Bold-56" d="M 2606 0 
L 1672 0 
L 44 4403 
L 1006 4403 
L 1913 1575 
Q 1997 1300 2144 744 
L 2209 1013 
L 2369 1575 
L 3272 4403 
L 4225 4403 
L 2606 0 
z
" transform="scale(0.015625)"/>
      <path id="LiberationSans-Bold-6f" d="M 3659 1694 
Q 3659 872 3203 404 
Q 2747 -63 1941 -63 
Q 1150 -63 700 406 
Q 250 875 250 1694 
Q 250 2509 700 2976 
Q 1150 3444 1959 3444 
Q 2788 3444 3223 2992 
Q 3659 2541 3659 1694 
z
M 2741 1694 
Q 2741 2297 2544 2569 
Q 2347 2841 1972 2841 
Q 1172 2841 1172 1694 
Q 1172 1128 1367 833 
Q 1563 538 1931 538 
Q 2741 538 2741 1694 
z
" transform="scale(0.015625)"/>
      <path id="LiberationSans-Bold-63" d="M 1856 -63 
Q 1088 -63 669 395 
Q 250 853 250 1672 
Q 250 2509 672 2976 
Q 1094 3444 1869 3444 
Q 2466 3444 2856 3144 
Q 3247 2844 3347 2316 
L 2463 2272 
Q 2425 2531 2275 2686 
Q 2125 2841 1850 2841 
Q 1172 2841 1172 1706 
Q 1172 538 1863 538 
Q 2113 538 2281 695 
Q 2450 853 2491 1166 
L 3372 1125 
Q 3325 778 3123 506 
Q 2922 234 2594 85 
Q 2266 -63 1856 -63 
z
" transform="scale(0.015625)"/>
     </defs>
     <use xlink:href="#LiberationSans-Bold-56"/>
     <use xlink:href="#LiberationSans-Bold-6f" x="59.324219"/>
     <use xlink:href="#LiberationSans-Bold-63" x="120.408203"/>
    </g>
   </g>
   <g id="legend_2">
    <g id="patch_23">
     <path d="M 738.2005 59.0745 
L 773.4005 59.0745 
L 773.4005 46.7545 
L 738.2005 46.7545 
z
" style="fill: #b22222"/>
    </g>
    <g id="text_25">
     <!-- MAPE -->
     <g style="fill: #262626" transform="translate(787.4805 59.0745) scale(0.176 -0.176)">
      <use xlink:href="#LiberationSans-4d"/>
      <use xlink:href="#LiberationSans-41" x="83.300781"/>
      <use xlink:href="#LiberationSans-50" x="150"/>
      <use xlink:href="#LiberationSans-45" x="216.699219"/>
     </g>
    </g>
   </g>
  </g>
  <g id="axes_3">
   <g id="patch_24">
    <path d="M 74.67 738.112734 
L 426.6 738.112734 
L 426.6 457.08 
L 74.67 457.08 
z
" style="fill: #ffffff"/>
   </g>
   <g id="matplotlib.axis_5">
    <g id="xtick_11">
     <g id="line2d_20">
      <g>
       <use xlink:href="#m1abb3b3b9b" x="105.20938" y="738.112734" style="fill: #262626; stroke: #262626"/>
      </g>
     </g>
     <g id="text_26">
      <!-- Scharber -->
      <g style="fill: #262626" transform="translate(52.133061 805.925492) rotate(-45) scale(0.176 -0.176)">
       <use xlink:href="#LiberationSans-53"/>
       <use xlink:href="#LiberationSans-63" x="66.699219"/>
       <use xlink:href="#LiberationSans-68" x="116.699219"/>
       <use xlink:href="#LiberationSans-61" x="172.314453"/>
       <use xlink:href="#LiberationSans-72" x="227.929688"/>
       <use xlink:href="#LiberationSans-62" x="261.230469"/>
       <use xlink:href="#LiberationSans-65" x="316.845703"/>
       <use xlink:href="#LiberationSans-72" x="372.460938"/>
      </g>
     </g>
    </g>
    <g id="xtick_12">
     <g id="line2d_21">
      <g>
       <use xlink:href="#m1abb3b3b9b" x="202.159793" y="738.112734" style="fill: #262626; stroke: #262626"/>
      </g>
     </g>
     <g id="text_27">
      <!-- Imamura -->
      <g style="fill: #262626" transform="translate(150.481601 804.527365) rotate(-45) scale(0.176 -0.176)">
       <use xlink:href="#LiberationSans-49"/>
       <use xlink:href="#LiberationSans-6d" x="27.783203"/>
       <use xlink:href="#LiberationSans-61" x="111.083984"/>
       <use xlink:href="#LiberationSans-6d" x="166.699219"/>
       <use xlink:href="#LiberationSans-75" x="250"/>
       <use xlink:href="#LiberationSans-72" x="305.615234"/>
       <use xlink:href="#LiberationSans-61" x="338.916016"/>
      </g>
     </g>
    </g>
    <g id="xtick_13">
     <g id="line2d_22">
      <g>
       <use xlink:href="#m1abb3b3b9b" x="299.110207" y="738.112734" style="fill: #262626; stroke: #262626"/>
      </g>
     </g>
     <g id="text_28">
      <!-- OPEP / B3LYP -->
      <g style="fill: #262626" transform="translate(213.962529 837.996851) rotate(-45) scale(0.176 -0.176)">
       <use xlink:href="#LiberationSans-4f"/>
       <use xlink:href="#LiberationSans-50" x="77.783203"/>
       <use xlink:href="#LiberationSans-45" x="144.482422"/>
       <use xlink:href="#LiberationSans-50" x="211.181641"/>
       <use xlink:href="#LiberationSans-20" x="276.130859"/>
       <use xlink:href="#LiberationSans-2f" x="303.914062"/>
       <use xlink:href="#LiberationSans-20" x="331.697266"/>
       <use xlink:href="#LiberationSans-42" x="359.480469"/>
       <use xlink:href="#LiberationSans-33" x="426.179688"/>
       <use xlink:href="#LiberationSans-4c" x="481.794922"/>
       <use xlink:href="#LiberationSans-59" x="530.035156"/>
       <use xlink:href="#LiberationSans-50" x="596.734375"/>
      </g>
     </g>
    </g>
    <g id="xtick_14">
     <g id="line2d_23">
      <g>
       <use xlink:href="#m1abb3b3b9b" x="396.06062" y="738.112734" style="fill: #262626; stroke: #262626"/>
      </g>
     </g>
     <g id="text_29">
      <!-- OPEP / sTD-DFT -->
      <g style="fill: #262626" transform="translate(297.594763 851.31503) rotate(-45) scale(0.176 -0.176)">
       <use xlink:href="#LiberationSans-4f"/>
       <use xlink:href="#LiberationSans-50" x="77.783203"/>
       <use xlink:href="#LiberationSans-45" x="144.482422"/>
       <use xlink:href="#LiberationSans-50" x="211.181641"/>
       <use xlink:href="#LiberationSans-20" x="276.130859"/>
       <use xlink:href="#LiberationSans-2f" x="303.914062"/>
       <use xlink:href="#LiberationSans-20" x="331.697266"/>
       <use xlink:href="#LiberationSans-73" x="359.480469"/>
       <use xlink:href="#LiberationSans-54" x="409.480469"/>
       <use xlink:href="#LiberationSans-44" x="470.564453"/>
       <use xlink:href="#LiberationSans-2d" x="542.78125"/>
       <use xlink:href="#LiberationSans-44" x="576.082031"/>
       <use xlink:href="#LiberationSans-46" x="648.298828"/>
       <use xlink:href="#LiberationSans-54" x="709.382812"/>
      </g>
     </g>
    </g>
   </g>
   <g id="matplotlib.axis_6">
    <g id="ytick_10">
     <g id="line2d_24">
      <g>
       <use xlink:href="#me362642a15" x="74.67" y="738.112734" style="fill: #262626; stroke: #262626"/>
      </g>
     </g>
     <g id="text_30">
      <!-- 0 -->
      <g style="fill: #262626" transform="translate(56.58275 744.489984) scale(0.176 -0.176)">
       <use xlink:href="#LiberationSans-30"/>
      </g>
     </g>
    </g>
    <g id="ytick_11">
     <g id="line2d_25">
      <g>
       <use xlink:href="#me362642a15" x="74.67" y="658.025893" style="fill: #262626; stroke: #262626"/>
      </g>
     </g>
     <g id="text_31">
      <!-- 5 -->
      <g style="fill: #262626" transform="translate(56.58275 664.403143) scale(0.176 -0.176)">
       <defs>
        <path id="LiberationSans-35" d="M 3291 1434 
Q 3291 1103 3191 828 
Q 3091 553 2894 354 
Q 2697 156 2405 46 
Q 2113 -63 1728 -63 
Q 1381 -63 1123 18 
Q 866 100 687 242 
Q 509 384 404 575 
Q 300 766 256 984 
L 825 1050 
Q 859 925 921 808 
Q 984 691 1092 598 
Q 1200 506 1358 451 
Q 1516 397 1741 397 
Q 1959 397 2137 464 
Q 2316 531 2442 662 
Q 2569 794 2637 984 
Q 2706 1175 2706 1422 
Q 2706 1625 2640 1795 
Q 2575 1966 2453 2089 
Q 2331 2213 2154 2281 
Q 1978 2350 1753 2350 
Q 1613 2350 1494 2325 
Q 1375 2300 1273 2256 
Q 1172 2213 1089 2155 
Q 1006 2097 934 2034 
L 384 2034 
L 531 4403 
L 3034 4403 
L 3034 3925 
L 1044 3925 
L 959 2528 
Q 1109 2644 1334 2726 
Q 1559 2809 1869 2809 
Q 2197 2809 2459 2709 
Q 2722 2609 2906 2426 
Q 3091 2244 3191 1991 
Q 3291 1738 3291 1434 
z
" transform="scale(0.015625)"/>
       </defs>
       <use xlink:href="#LiberationSans-35"/>
      </g>
     </g>
    </g>
    <g id="ytick_12">
     <g id="line2d_26">
      <g>
       <use xlink:href="#me362642a15" x="74.67" y="577.939052" style="fill: #262626; stroke: #262626"/>
      </g>
     </g>
     <g id="text_32">
      <!-- 10 -->
      <g style="fill: #262626" transform="translate(46.7955 584.316302) scale(0.176 -0.176)">
       <defs>
        <path id="LiberationSans-31" d="M 488 0 
L 488 478 
L 1609 478 
L 1609 3866 
L 616 3156 
L 616 3688 
L 1656 4403 
L 2175 4403 
L 2175 478 
L 3247 478 
L 3247 0 
L 488 0 
z
" transform="scale(0.015625)"/>
       </defs>
       <use xlink:href="#LiberationSans-31"/>
       <use xlink:href="#LiberationSans-30" x="55.615234"/>
      </g>
     </g>
    </g>
    <g id="ytick_13">
     <g id="line2d_27">
      <g>
       <use xlink:href="#me362642a15" x="74.67" y="497.852211" style="fill: #262626; stroke: #262626"/>
      </g>
     </g>
     <g id="text_33">
      <!-- 15 -->
      <g style="fill: #262626" transform="translate(46.7955 504.229461) scale(0.176 -0.176)">
       <use xlink:href="#LiberationSans-31"/>
       <use xlink:href="#LiberationSans-35" x="55.615234"/>
      </g>
     </g>
    </g>
    <g id="text_34">
     <!-- % -->
     <g style="fill: #262626" transform="translate(38.8115 606.132867) rotate(-90) scale(0.192 -0.192)">
      <use xlink:href="#LiberationSans-25"/>
     </g>
    </g>
   </g>
   <g id="patch_25">
    <path d="M 90.666818 738.112734 
L 119.751942 738.112734 
L 119.751942 491.765611 
L 90.666818 491.765611 
z
" clip-path="url(#p70b06e822e)" style="fill: #b22222"/>
   </g>
   <g id="patch_26">
    <path d="M 187.617231 738.112734 
L 216.702355 738.112734 
L 216.702355 491.765611 
L 187.617231 491.765611 
z
" clip-path="url(#p70b06e822e)" style="fill: #b22222"/>
   </g>
   <g id="patch_27">
    <path d="M 284.567645 738.112734 
L 313.652769 738.112734 
L 313.652769 617.62048 
L 284.567645 617.62048 
z
" clip-path="url(#p70b06e822e)" style="fill: #b22222"/>
   </g>
   <g id="patch_28">
    <path d="M 381.518058 738.112734 
L 410.603182 738.112734 
L 410.603182 623.287425 
L 381.518058 623.287425 
z
" clip-path="url(#p70b06e822e)" style="fill: #b22222"/>
   </g>
   <g id="LineCollection_3">
    <path d="M 105.20938 513.068711 
L 105.20938 470.462511 
" clip-path="url(#p70b06e822e)" style="fill: none; stroke: #000000; stroke-width: 1.2"/>
    <path d="M 202.159793 513.068711 
L 202.159793 470.462511 
" clip-path="url(#p70b06e822e)" style="fill: none; stroke: #000000; stroke-width: 1.2"/>
    <path d="M 299.110207 618.898025 
L 299.110207 616.342935 
" clip-path="url(#p70b06e822e)" style="fill: none; stroke: #000000; stroke-width: 1.2"/>
    <path d="M 396.06062 626.199542 
L 396.06062 620.375307 
" clip-path="url(#p70b06e822e)" style="fill: none; stroke: #000000; stroke-width: 1.2"/>
   </g>
   <g id="patch_29">
    <path d="M 74.67 738.112734 
L 74.67 457.08 
" style="fill: none; stroke: #262626; stroke-linejoin: miter; stroke-linecap: square"/>
   </g>
   <g id="patch_30">
    <path d="M 426.6 738.112734 
L 426.6 457.08 
" style="fill: none; stroke: #262626; stroke-linejoin: miter; stroke-linecap: square"/>
   </g>
   <g id="patch_31">
    <path d="M 74.67 738.112734 
L 426.6 738.112734 
" style="fill: none; stroke: #262626; stroke-linejoin: miter; stroke-linecap: square"/>
   </g>
   <g id="patch_32">
    <path d="M 74.67 457.08 
L 426.6 457.08 
" style="fill: none; stroke: #262626; stroke-linejoin: miter; stroke-linecap: square"/>
   </g>
   <g id="text_35">
    <!-- Jsc -->
    <g style="fill: #262626" transform="translate(234.6195 451.08) scale(0.192 -0.192)">
     <defs>
      <path id="LiberationSans-Bold-4a" d="M 1638 -63 
Q 953 -63 586 234 
Q 219 531 97 1194 
L 1013 1328 
Q 1069 988 1222 823 
Q 1375 659 1644 659 
Q 1919 659 2061 843 
Q 2203 1028 2203 1372 
L 2203 3681 
L 1325 3681 
L 1325 4403 
L 3122 4403 
L 3122 1394 
Q 3122 706 2731 321 
Q 2341 -63 1638 -63 
z
" transform="scale(0.015625)"/>
      <path id="LiberationSans-Bold-73" d="M 3297 988 
Q 3297 497 2895 217 
Q 2494 -63 1784 -63 
Q 1088 -63 717 157 
Q 347 378 225 844 
L 997 959 
Q 1063 719 1223 619 
Q 1384 519 1784 519 
Q 2153 519 2322 612 
Q 2491 706 2491 906 
Q 2491 1069 2355 1164 
Q 2219 1259 1894 1325 
Q 1150 1472 890 1598 
Q 631 1725 495 1926 
Q 359 2128 359 2422 
Q 359 2906 732 3176 
Q 1106 3447 1791 3447 
Q 2394 3447 2761 3212 
Q 3128 2978 3219 2534 
L 2441 2453 
Q 2403 2659 2256 2761 
Q 2109 2863 1791 2863 
Q 1478 2863 1322 2783 
Q 1166 2703 1166 2516 
Q 1166 2369 1286 2283 
Q 1406 2197 1691 2141 
Q 2088 2059 2395 1973 
Q 2703 1888 2889 1769 
Q 3075 1650 3186 1464 
Q 3297 1278 3297 988 
z
" transform="scale(0.015625)"/>
     </defs>
     <use xlink:href="#LiberationSans-Bold-4a"/>
     <use xlink:href="#LiberationSans-Bold-73" x="55.615234"/>
     <use xlink:href="#LiberationSans-Bold-63" x="111.230469"/>
    </g>
   </g>
   <g id="legend_3">
    <g id="patch_33">
     <path d="M 311.6005 485.6745 
L 346.8005 485.6745 
L 346.8005 473.3545 
L 311.6005 473.3545 
z
" style="fill: #b22222"/>
    </g>
    <g id="text_36">
     <!-- MAPE -->
     <g style="fill: #262626" transform="translate(360.8805 485.6745) scale(0.176 -0.176)">
      <use xlink:href="#LiberationSans-4d"/>
      <use xlink:href="#LiberationSans-41" x="83.300781"/>
      <use xlink:href="#LiberationSans-50" x="150"/>
      <use xlink:href="#LiberationSans-45" x="216.699219"/>
     </g>
    </g>
   </g>
  </g>
  <g id="axes_4">
   <g id="patch_34">
    <path d="M 501.27 738.112734 
L 853.2 738.112734 
L 853.2 457.08 
L 501.27 457.08 
z
" style="fill: #ffffff"/>
   </g>
   <g id="matplotlib.axis_7">
    <g id="xtick_15">
     <g id="line2d_28">
      <g>
       <use xlink:href="#m1abb3b3b9b" x="528.427389" y="738.112734" style="fill: #262626; stroke: #262626"/>
      </g>
     </g>
     <g id="text_37">
      <!-- Scharber -->
      <g style="fill: #262626" transform="translate(475.35107 805.925492) rotate(-45) scale(0.176 -0.176)">
       <use xlink:href="#LiberationSans-53"/>
       <use xlink:href="#LiberationSans-63" x="66.699219"/>
       <use xlink:href="#LiberationSans-68" x="116.699219"/>
       <use xlink:href="#LiberationSans-61" x="172.314453"/>
       <use xlink:href="#LiberationSans-72" x="227.929688"/>
       <use xlink:href="#LiberationSans-62" x="261.230469"/>
       <use xlink:href="#LiberationSans-65" x="316.845703"/>
       <use xlink:href="#LiberationSans-72" x="372.460938"/>
      </g>
     </g>
    </g>
    <g id="xtick_16">
     <g id="line2d_29">
      <g>
       <use xlink:href="#m1abb3b3b9b" x="602.831195" y="738.112734" style="fill: #262626; stroke: #262626"/>
      </g>
     </g>
     <g id="text_38">
      <!-- Imamura -->
      <g style="fill: #262626" transform="translate(551.153003 804.527365) rotate(-45) scale(0.176 -0.176)">
       <use xlink:href="#LiberationSans-49"/>
       <use xlink:href="#LiberationSans-6d" x="27.783203"/>
       <use xlink:href="#LiberationSans-61" x="111.083984"/>
       <use xlink:href="#LiberationSans-6d" x="166.699219"/>
       <use xlink:href="#LiberationSans-75" x="250"/>
       <use xlink:href="#LiberationSans-72" x="305.615234"/>
       <use xlink:href="#LiberationSans-61" x="338.916016"/>
      </g>
     </g>
    </g>
    <g id="xtick_17">
     <g id="line2d_30">
      <g>
       <use xlink:href="#m1abb3b3b9b" x="677.235" y="738.112734" style="fill: #262626; stroke: #262626"/>
      </g>
     </g>
     <g id="text_39">
      <!-- Modified Alharbi -->
      <g style="fill: #262626" transform="translate(586.105906 843.978267) rotate(-45) scale(0.176 -0.176)">
       <defs>
        <path id="LiberationSans-6f" d="M 3291 1694 
Q 3291 806 2900 371 
Q 2509 -63 1766 -63 
Q 1413 -63 1134 43 
Q 856 150 664 369 
Q 472 588 370 917 
Q 269 1247 269 1694 
Q 269 3444 1784 3444 
Q 2178 3444 2464 3334 
Q 2750 3225 2933 3006 
Q 3116 2788 3203 2459 
Q 3291 2131 3291 1694 
z
M 2700 1694 
Q 2700 2088 2639 2344 
Q 2578 2600 2461 2753 
Q 2344 2906 2175 2967 
Q 2006 3028 1794 3028 
Q 1578 3028 1404 2964 
Q 1231 2900 1109 2745 
Q 988 2591 923 2334 
Q 859 2078 859 1694 
Q 859 1300 928 1042 
Q 997 784 1117 631 
Q 1238 478 1402 415 
Q 1566 353 1759 353 
Q 1975 353 2150 414 
Q 2325 475 2447 628 
Q 2569 781 2634 1040 
Q 2700 1300 2700 1694 
z
" transform="scale(0.015625)"/>
        <path id="LiberationSans-64" d="M 2566 544 
Q 2409 219 2151 78 
Q 1894 -63 1513 -63 
Q 872 -63 570 368 
Q 269 800 269 1675 
Q 269 3444 1513 3444 
Q 1897 3444 2153 3303 
Q 2409 3163 2566 2856 
L 2572 2856 
Q 2572 2888 2570 2955 
Q 2569 3022 2567 3095 
Q 2566 3169 2566 3234 
Q 2566 3300 2566 3328 
L 2566 4638 
L 3128 4638 
L 3128 697 
Q 3128 575 3129 462 
Q 3131 350 3134 256 
Q 3138 163 3141 95 
Q 3144 28 3147 0 
L 2609 0 
Q 2603 31 2598 89 
Q 2594 147 2589 222 
Q 2584 297 2581 380 
Q 2578 463 2578 544 
L 2566 544 
z
M 859 1694 
Q 859 1344 903 1094 
Q 947 844 1044 683 
Q 1141 522 1291 447 
Q 1441 372 1656 372 
Q 1878 372 2048 444 
Q 2219 516 2333 677 
Q 2447 838 2506 1097 
Q 2566 1356 2566 1731 
Q 2566 2091 2506 2339 
Q 2447 2588 2331 2741 
Q 2216 2894 2048 2961 
Q 1881 3028 1663 3028 
Q 1456 3028 1306 2956 
Q 1156 2884 1056 2725 
Q 956 2566 907 2311 
Q 859 2056 859 1694 
z
" transform="scale(0.015625)"/>
        <path id="LiberationSans-66" d="M 1128 2972 
L 1128 0 
L 566 0 
L 566 2972 
L 91 2972 
L 91 3381 
L 566 3381 
L 566 3763 
Q 566 3947 600 4105 
Q 634 4263 726 4380 
Q 819 4497 978 4564 
Q 1138 4631 1391 4631 
Q 1491 4631 1598 4622 
Q 1706 4613 1788 4594 
L 1788 4166 
Q 1734 4175 1664 4183 
Q 1594 4191 1538 4191 
Q 1413 4191 1333 4156 
Q 1253 4122 1208 4058 
Q 1163 3994 1145 3900 
Q 1128 3806 1128 3684 
L 1128 3381 
L 1788 3381 
L 1788 2972 
L 1128 2972 
z
" transform="scale(0.015625)"/>
       </defs>
       <use xlink:href="#LiberationSans-4d"/>
       <use xlink:href="#LiberationSans-6f" x="83.300781"/>
       <use xlink:href="#LiberationSans-64" x="138.916016"/>
       <use xlink:href="#LiberationSans-69" x="194.53125"/>
       <use xlink:href="#LiberationSans-66" x="216.748047"/>
       <use xlink:href="#LiberationSans-69" x="244.53125"/>
       <use xlink:href="#LiberationSans-65" x="266.748047"/>
       <use xlink:href="#LiberationSans-64" x="322.363281"/>
       <use xlink:href="#LiberationSans-20" x="377.978516"/>
       <use xlink:href="#LiberationSans-41" x="400.261719"/>
       <use xlink:href="#LiberationSans-6c" x="466.960938"/>
       <use xlink:href="#LiberationSans-68" x="489.177734"/>
       <use xlink:href="#LiberationSans-61" x="544.792969"/>
       <use xlink:href="#LiberationSans-72" x="600.408203"/>
       <use xlink:href="#LiberationSans-62" x="633.708984"/>
       <use xlink:href="#LiberationSans-69" x="689.324219"/>
      </g>
     </g>
    </g>
    <g id="xtick_18">
     <g id="line2d_31">
      <g>
       <use xlink:href="#m1abb3b3b9b" x="751.638805" y="738.112734" style="fill: #262626; stroke: #262626"/>
      </g>
     </g>
     <g id="text_40">
      <!-- OPEP / B3LYP -->
      <g style="fill: #262626" transform="translate(666.491128 837.996851) rotate(-45) scale(0.176 -0.176)">
       <use xlink:href="#LiberationSans-4f"/>
       <use xlink:href="#LiberationSans-50" x="77.783203"/>
       <use xlink:href="#LiberationSans-45" x="144.482422"/>
       <use xlink:href="#LiberationSans-50" x="211.181641"/>
       <use xlink:href="#LiberationSans-20" x="276.130859"/>
       <use xlink:href="#LiberationSans-2f" x="303.914062"/>
       <use xlink:href="#LiberationSans-20" x="331.697266"/>
       <use xlink:href="#LiberationSans-42" x="359.480469"/>
       <use xlink:href="#LiberationSans-33" x="426.179688"/>
       <use xlink:href="#LiberationSans-4c" x="481.794922"/>
       <use xlink:href="#LiberationSans-59" x="530.035156"/>
       <use xlink:href="#LiberationSans-50" x="596.734375"/>
      </g>
     </g>
    </g>
    <g id="xtick_19">
     <g id="line2d_32">
      <g>
       <use xlink:href="#m1abb3b3b9b" x="826.042611" y="738.112734" style="fill: #262626; stroke: #262626"/>
      </g>
     </g>
     <g id="text_41">
      <!-- OPEP / sTD-DFT -->
      <g style="fill: #262626" transform="translate(727.576754 851.31503) rotate(-45) scale(0.176 -0.176)">
       <use xlink:href="#LiberationSans-4f"/>
       <use xlink:href="#LiberationSans-50" x="77.783203"/>
       <use xlink:href="#LiberationSans-45" x="144.482422"/>
       <use xlink:href="#LiberationSans-50" x="211.181641"/>
       <use xlink:href="#LiberationSans-20" x="276.130859"/>
       <use xlink:href="#LiberationSans-2f" x="303.914062"/>
       <use xlink:href="#LiberationSans-20" x="331.697266"/>
       <use xlink:href="#LiberationSans-73" x="359.480469"/>
       <use xlink:href="#LiberationSans-54" x="409.480469"/>
       <use xlink:href="#LiberationSans-44" x="470.564453"/>
       <use xlink:href="#LiberationSans-2d" x="542.78125"/>
       <use xlink:href="#LiberationSans-44" x="576.082031"/>
       <use xlink:href="#LiberationSans-46" x="648.298828"/>
       <use xlink:href="#LiberationSans-54" x="709.382812"/>
      </g>
     </g>
    </g>
   </g>
   <g id="matplotlib.axis_8">
    <g id="ytick_14">
     <g id="line2d_33">
      <g>
       <use xlink:href="#me362642a15" x="501.27" y="738.112734" style="fill: #262626; stroke: #262626"/>
      </g>
     </g>
     <g id="text_42">
      <!-- 0 -->
      <g style="fill: #262626" transform="translate(483.18275 744.489984) scale(0.176 -0.176)">
       <use xlink:href="#LiberationSans-30"/>
      </g>
     </g>
    </g>
    <g id="ytick_15">
     <g id="line2d_34">
      <g>
       <use xlink:href="#me362642a15" x="501.27" y="665.22324" style="fill: #262626; stroke: #262626"/>
      </g>
     </g>
     <g id="text_43">
      <!-- 5 -->
      <g style="fill: #262626" transform="translate(483.18275 671.60049) scale(0.176 -0.176)">
       <use xlink:href="#LiberationSans-35"/>
      </g>
     </g>
    </g>
    <g id="ytick_16">
     <g id="line2d_35">
      <g>
       <use xlink:href="#me362642a15" x="501.27" y="592.333745" style="fill: #262626; stroke: #262626"/>
      </g>
     </g>
     <g id="text_44">
      <!-- 10 -->
      <g style="fill: #262626" transform="translate(473.3955 598.710995) scale(0.176 -0.176)">
       <use xlink:href="#LiberationSans-31"/>
       <use xlink:href="#LiberationSans-30" x="55.615234"/>
      </g>
     </g>
    </g>
    <g id="ytick_17">
     <g id="line2d_36">
      <g>
       <use xlink:href="#me362642a15" x="501.27" y="519.444251" style="fill: #262626; stroke: #262626"/>
      </g>
     </g>
     <g id="text_45">
      <!-- 15 -->
      <g style="fill: #262626" transform="translate(473.3955 525.821501) scale(0.176 -0.176)">
       <use xlink:href="#LiberationSans-31"/>
       <use xlink:href="#LiberationSans-35" x="55.615234"/>
      </g>
     </g>
    </g>
    <g id="text_46">
     <!-- % -->
     <g style="fill: #262626" transform="translate(465.4115 606.132867) rotate(-90) scale(0.192 -0.192)">
      <use xlink:href="#LiberationSans-25"/>
     </g>
    </g>
   </g>
   <g id="patch_35">
    <path d="M 517.266818 738.112734 
L 539.58796 738.112734 
L 539.58796 481.395935 
L 517.266818 481.395935 
z
" clip-path="url(#pf1f1d34289)" style="fill: #b22222"/>
   </g>
   <g id="patch_36">
    <path d="M 591.670624 738.112734 
L 613.991765 738.112734 
L 613.991765 481.395935 
L 591.670624 481.395935 
z
" clip-path="url(#pf1f1d34289)" style="fill: #b22222"/>
   </g>
   <g id="patch_37">
    <path d="M 666.074429 738.112734 
L 688.395571 738.112734 
L 688.395571 490.288454 
L 666.074429 490.288454 
z
" clip-path="url(#pf1f1d34289)" style="fill: #b22222"/>
   </g>
   <g id="patch_38">
    <path d="M 740.478235 738.112734 
L 762.799376 738.112734 
L 762.799376 589.053718 
L 740.478235 589.053718 
z
" clip-path="url(#pf1f1d34289)" style="fill: #b22222"/>
   </g>
   <g id="patch_39">
    <path d="M 814.88204 738.112734 
L 837.203182 738.112734 
L 837.203182 578.532849 
L 814.88204 578.532849 
z
" clip-path="url(#pf1f1d34289)" style="fill: #b22222"/>
   </g>
   <g id="LineCollection_4">
    <path d="M 528.427389 492.329359 
L 528.427389 470.462511 
" clip-path="url(#pf1f1d34289)" style="fill: none; stroke: #000000; stroke-width: 1.2"/>
    <path d="M 602.831195 492.329359 
L 602.831195 470.462511 
" clip-path="url(#pf1f1d34289)" style="fill: none; stroke: #000000; stroke-width: 1.2"/>
    <path d="M 677.235 498.743635 
L 677.235 481.833272 
" clip-path="url(#pf1f1d34289)" style="fill: none; stroke: #000000; stroke-width: 1.2"/>
    <path d="M 751.638805 591.27539 
L 751.638805 586.832046 
" clip-path="url(#pf1f1d34289)" style="fill: none; stroke: #000000; stroke-width: 1.2"/>
    <path d="M 826.042611 580.173883 
L 826.042611 576.891815 
" clip-path="url(#pf1f1d34289)" style="fill: none; stroke: #000000; stroke-width: 1.2"/>
   </g>
   <g id="patch_40">
    <path d="M 501.27 738.112734 
L 501.27 457.08 
" style="fill: none; stroke: #262626; stroke-linejoin: miter; stroke-linecap: square"/>
   </g>
   <g id="patch_41">
    <path d="M 853.2 738.112734 
L 853.2 457.08 
" style="fill: none; stroke: #262626; stroke-linejoin: miter; stroke-linecap: square"/>
   </g>
   <g id="patch_42">
    <path d="M 501.27 738.112734 
L 853.2 738.112734 
" style="fill: none; stroke: #262626; stroke-linejoin: miter; stroke-linecap: square"/>
   </g>
   <g id="patch_43">
    <path d="M 501.27 457.08 
L 853.2 457.08 
" style="fill: none; stroke: #262626; stroke-linejoin: miter; stroke-linecap: square"/>
   </g>
   <g id="text_47">
    <!-- PCE -->
    <g style="fill: #262626" transform="translate(657.495 451.08) scale(0.192 -0.192)">
     <defs>
      <path id="LiberationSans-Bold-50" d="M 4050 3009 
Q 4050 2584 3856 2250 
Q 3663 1916 3302 1733 
Q 2941 1550 2444 1550 
L 1350 1550 
L 1350 0 
L 428 0 
L 428 4403 
L 2406 4403 
Q 3197 4403 3623 4039 
Q 4050 3675 4050 3009 
z
M 3122 2994 
Q 3122 3688 2303 3688 
L 1350 3688 
L 1350 2259 
L 2328 2259 
Q 2709 2259 2915 2448 
Q 3122 2638 3122 2994 
z
" transform="scale(0.015625)"/>
      <path id="LiberationSans-Bold-43" d="M 2484 663 
Q 3319 663 3644 1500 
L 4447 1197 
Q 4188 559 3686 248 
Q 3184 -63 2484 -63 
Q 1422 -63 842 539 
Q 263 1141 263 2222 
Q 263 3306 822 3887 
Q 1381 4469 2444 4469 
Q 3219 4469 3706 4158 
Q 4194 3847 4391 3244 
L 3578 3022 
Q 3475 3353 3173 3548 
Q 2872 3744 2463 3744 
Q 1838 3744 1514 3356 
Q 1191 2969 1191 2222 
Q 1191 1463 1523 1063 
Q 1856 663 2484 663 
z
" transform="scale(0.015625)"/>
      <path id="LiberationSans-Bold-45" d="M 428 0 
L 428 4403 
L 3891 4403 
L 3891 3691 
L 1350 3691 
L 1350 2584 
L 3700 2584 
L 3700 1872 
L 1350 1872 
L 1350 713 
L 4019 713 
L 4019 0 
L 428 0 
z
" transform="scale(0.015625)"/>
     </defs>
     <use xlink:href="#LiberationSans-Bold-50"/>
     <use xlink:href="#LiberationSans-Bold-43" x="66.699219"/>
     <use xlink:href="#LiberationSans-Bold-45" x="138.916016"/>
    </g>
   </g>
   <g id="legend_4">
    <g id="patch_44">
     <path d="M 738.2005 485.6745 
L 773.4005 485.6745 
L 773.4005 473.3545 
L 738.2005 473.3545 
z
" style="fill: #b22222"/>
    </g>
    <g id="text_48">
     <!-- MAPE -->
     <g style="fill: #262626" transform="translate(787.4805 485.6745) scale(0.176 -0.176)">
      <use xlink:href="#LiberationSans-4d"/>
      <use xlink:href="#LiberationSans-41" x="83.300781"/>
      <use xlink:href="#LiberationSans-50" x="150"/>
      <use xlink:href="#LiberationSans-45" x="216.699219"/>
     </g>
    </g>
   </g>
  </g>
 </g>
 <defs>
  <clipPath id="p4fef09fb83">
   <rect x="74.67" y="30.48" width="351.93" height="281.032734"/>
  </clipPath>
  <clipPath id="p0964a1ee35">
   <rect x="501.27" y="30.48" width="351.93" height="281.032734"/>
  </clipPath>
  <clipPath id="p70b06e822e">
   <rect x="74.67" y="457.08" width="351.93" height="281.032734"/>
  </clipPath>
  <clipPath id="pf1f1d34289">
   <rect x="501.27" y="457.08" width="351.93" height="281.032734"/>
  </clipPath>
 </defs>
</svg>
