<?xml version="1.0" encoding="utf-8" standalone="no"?>
<!DOCTYPE svg PUBLIC "-//W3C//DTD SVG 1.1//EN"
  "http://www.w3.org/Graphics/SVG/1.1/DTD/svg11.dtd">
<!-- Created with matplotlib (https://matplotlib.org/) -->
<svg height="864pt" version="1.1" viewBox="0 0 864 864" width="864pt" xmlns="http://www.w3.org/2000/svg" xmlns:xlink="http://www.w3.org/1999/xlink">
 <defs>
  <style type="text/css">
*{stroke-linecap:butt;stroke-linejoin:round;}
  </style>
 </defs>
 <g id="figure_1">
  <g id="patch_1">
   <path d="M 0 864 
L 864 864 
L 864 0 
L 0 0 
z
" style="fill:#ffffff;"/>
  </g>
  <g id="axes_1">
   <g id="patch_2">
    <path d="M 80.025 313.839536 
L 420.6 313.839536 
L 420.6 31.8 
L 80.025 31.8 
z
" style="fill:#ffffff;"/>
   </g>
   <g id="matplotlib.axis_1">
    <g id="xtick_1">
     <g id="line2d_1">
      <defs>
       <path d="M 0 0 
L 0 6 
" id="m2785822f82" style="stroke:#262626;stroke-width:0.8;"/>
      </defs>
      <g>
       <use style="fill:#262626;stroke:#262626;stroke-width:0.8;" x="106.306158" xlink:href="#m2785822f82" y="313.839536"/>
      </g>
     </g>
     <g id="text_1">
      <!-- Scharber -->
      <defs>
       <path d="M 53.515625 70.515625 
L 53.515625 60.890625 
Q 47.90625 63.578125 42.921875 64.890625 
Q 37.9375 66.21875 33.296875 66.21875 
Q 25.25 66.21875 20.875 63.09375 
Q 16.5 59.96875 16.5 54.203125 
Q 16.5 49.359375 19.40625 46.890625 
Q 22.3125 44.4375 30.421875 42.921875 
L 36.375 41.703125 
Q 47.40625 39.59375 52.65625 34.296875 
Q 57.90625 29 57.90625 20.125 
Q 57.90625 9.515625 50.796875 4.046875 
Q 43.703125 -1.421875 29.984375 -1.421875 
Q 24.8125 -1.421875 18.96875 -0.25 
Q 13.140625 0.921875 6.890625 3.21875 
L 6.890625 13.375 
Q 12.890625 10.015625 18.65625 8.296875 
Q 24.421875 6.59375 29.984375 6.59375 
Q 38.421875 6.59375 43.015625 9.90625 
Q 47.609375 13.234375 47.609375 19.390625 
Q 47.609375 24.75 44.3125 27.78125 
Q 41.015625 30.8125 33.5 32.328125 
L 27.484375 33.5 
Q 16.453125 35.6875 11.515625 40.375 
Q 6.59375 45.0625 6.59375 53.421875 
Q 6.59375 63.09375 13.40625 68.65625 
Q 20.21875 74.21875 32.171875 74.21875 
Q 37.3125 74.21875 42.625 73.28125 
Q 47.953125 72.359375 53.515625 70.515625 
z
" id="DejaVuSans-83"/>
       <path d="M 48.78125 52.59375 
L 48.78125 44.1875 
Q 44.96875 46.296875 41.140625 47.34375 
Q 37.3125 48.390625 33.40625 48.390625 
Q 24.65625 48.390625 19.8125 42.84375 
Q 14.984375 37.3125 14.984375 27.296875 
Q 14.984375 17.28125 19.8125 11.734375 
Q 24.65625 6.203125 33.40625 6.203125 
Q 37.3125 6.203125 41.140625 7.25 
Q 44.96875 8.296875 48.78125 10.40625 
L 48.78125 2.09375 
Q 45.015625 0.34375 40.984375 -0.53125 
Q 36.96875 -1.421875 32.421875 -1.421875 
Q 20.0625 -1.421875 12.78125 6.34375 
Q 5.515625 14.109375 5.515625 27.296875 
Q 5.515625 40.671875 12.859375 48.328125 
Q 20.21875 56 33.015625 56 
Q 37.15625 56 41.109375 55.140625 
Q 45.0625 54.296875 48.78125 52.59375 
z
" id="DejaVuSans-99"/>
       <path d="M 54.890625 33.015625 
L 54.890625 0 
L 45.90625 0 
L 45.90625 32.71875 
Q 45.90625 40.484375 42.875 44.328125 
Q 39.84375 48.1875 33.796875 48.1875 
Q 26.515625 48.1875 22.3125 43.546875 
Q 18.109375 38.921875 18.109375 30.90625 
L 18.109375 0 
L 9.078125 0 
L 9.078125 75.984375 
L 18.109375 75.984375 
L 18.109375 46.1875 
Q 21.34375 51.125 25.703125 53.5625 
Q 30.078125 56 35.796875 56 
Q 45.21875 56 50.046875 50.171875 
Q 54.890625 44.34375 54.890625 33.015625 
z
" id="DejaVuSans-104"/>
       <path d="M 34.28125 27.484375 
Q 23.390625 27.484375 19.1875 25 
Q 14.984375 22.515625 14.984375 16.5 
Q 14.984375 11.71875 18.140625 8.90625 
Q 21.296875 6.109375 26.703125 6.109375 
Q 34.1875 6.109375 38.703125 11.40625 
Q 43.21875 16.703125 43.21875 25.484375 
L 43.21875 27.484375 
z
M 52.203125 31.203125 
L 52.203125 0 
L 43.21875 0 
L 43.21875 8.296875 
Q 40.140625 3.328125 35.546875 0.953125 
Q 30.953125 -1.421875 24.3125 -1.421875 
Q 15.921875 -1.421875 10.953125 3.296875 
Q 6 8.015625 6 15.921875 
Q 6 25.140625 12.171875 29.828125 
Q 18.359375 34.515625 30.609375 34.515625 
L 43.21875 34.515625 
L 43.21875 35.40625 
Q 43.21875 41.609375 39.140625 45 
Q 35.0625 48.390625 27.6875 48.390625 
Q 23 48.390625 18.546875 47.265625 
Q 14.109375 46.140625 10.015625 43.890625 
L 10.015625 52.203125 
Q 14.9375 54.109375 19.578125 55.046875 
Q 24.21875 56 28.609375 56 
Q 40.484375 56 46.34375 49.84375 
Q 52.203125 43.703125 52.203125 31.203125 
z
" id="DejaVuSans-97"/>
       <path d="M 41.109375 46.296875 
Q 39.59375 47.171875 37.8125 47.578125 
Q 36.03125 48 33.890625 48 
Q 26.265625 48 22.1875 43.046875 
Q 18.109375 38.09375 18.109375 28.8125 
L 18.109375 0 
L 9.078125 0 
L 9.078125 54.6875 
L 18.109375 54.6875 
L 18.109375 46.1875 
Q 20.953125 51.171875 25.484375 53.578125 
Q 30.03125 56 36.53125 56 
Q 37.453125 56 38.578125 55.875 
Q 39.703125 55.765625 41.0625 55.515625 
z
" id="DejaVuSans-114"/>
       <path d="M 48.6875 27.296875 
Q 48.6875 37.203125 44.609375 42.84375 
Q 40.53125 48.484375 33.40625 48.484375 
Q 26.265625 48.484375 22.1875 42.84375 
Q 18.109375 37.203125 18.109375 27.296875 
Q 18.109375 17.390625 22.1875 11.75 
Q 26.265625 6.109375 33.40625 6.109375 
Q 40.53125 6.109375 44.609375 11.75 
Q 48.6875 17.390625 48.6875 27.296875 
z
M 18.109375 46.390625 
Q 20.953125 51.265625 25.265625 53.625 
Q 29.59375 56 35.59375 56 
Q 45.5625 56 51.78125 48.09375 
Q 58.015625 40.1875 58.015625 27.296875 
Q 58.015625 14.40625 51.78125 6.484375 
Q 45.5625 -1.421875 35.59375 -1.421875 
Q 29.59375 -1.421875 25.265625 0.953125 
Q 20.953125 3.328125 18.109375 8.203125 
L 18.109375 0 
L 9.078125 0 
L 9.078125 75.984375 
L 18.109375 75.984375 
z
" id="DejaVuSans-98"/>
       <path d="M 56.203125 29.59375 
L 56.203125 25.203125 
L 14.890625 25.203125 
Q 15.484375 15.921875 20.484375 11.0625 
Q 25.484375 6.203125 34.421875 6.203125 
Q 39.59375 6.203125 44.453125 7.46875 
Q 49.3125 8.734375 54.109375 11.28125 
L 54.109375 2.78125 
Q 49.265625 0.734375 44.1875 -0.34375 
Q 39.109375 -1.421875 33.890625 -1.421875 
Q 20.796875 -1.421875 13.15625 6.1875 
Q 5.515625 13.8125 5.515625 26.8125 
Q 5.515625 40.234375 12.765625 48.109375 
Q 20.015625 56 32.328125 56 
Q 43.359375 56 49.78125 48.890625 
Q 56.203125 41.796875 56.203125 29.59375 
z
M 47.21875 32.234375 
Q 47.125 39.59375 43.09375 43.984375 
Q 39.0625 48.390625 32.421875 48.390625 
Q 24.90625 48.390625 20.390625 44.140625 
Q 15.875 39.890625 15.1875 32.171875 
z
" id="DejaVuSans-101"/>
      </defs>
      <g style="fill:#262626;" transform="translate(53.000913 384.988534)rotate(-45)scale(0.16 -0.16)">
       <use xlink:href="#DejaVuSans-83"/>
       <use x="63.476562" xlink:href="#DejaVuSans-99"/>
       <use x="118.457031" xlink:href="#DejaVuSans-104"/>
       <use x="181.835938" xlink:href="#DejaVuSans-97"/>
       <use x="243.115234" xlink:href="#DejaVuSans-114"/>
       <use x="284.228516" xlink:href="#DejaVuSans-98"/>
       <use x="347.705078" xlink:href="#DejaVuSans-101"/>
       <use x="409.228516" xlink:href="#DejaVuSans-114"/>
      </g>
     </g>
    </g>
    <g id="xtick_2">
     <g id="line2d_2">
      <g>
       <use style="fill:#262626;stroke:#262626;stroke-width:0.8;" x="178.309329" xlink:href="#m2785822f82" y="313.839536"/>
      </g>
     </g>
     <g id="text_2">
      <!-- Imamura -->
      <defs>
       <path d="M 9.8125 72.90625 
L 19.671875 72.90625 
L 19.671875 0 
L 9.8125 0 
z
" id="DejaVuSans-73"/>
       <path d="M 52 44.1875 
Q 55.375 50.25 60.0625 53.125 
Q 64.75 56 71.09375 56 
Q 79.640625 56 84.28125 50.015625 
Q 88.921875 44.046875 88.921875 33.015625 
L 88.921875 0 
L 79.890625 0 
L 79.890625 32.71875 
Q 79.890625 40.578125 77.09375 44.375 
Q 74.3125 48.1875 68.609375 48.1875 
Q 61.625 48.1875 57.5625 43.546875 
Q 53.515625 38.921875 53.515625 30.90625 
L 53.515625 0 
L 44.484375 0 
L 44.484375 32.71875 
Q 44.484375 40.625 41.703125 44.40625 
Q 38.921875 48.1875 33.109375 48.1875 
Q 26.21875 48.1875 22.15625 43.53125 
Q 18.109375 38.875 18.109375 30.90625 
L 18.109375 0 
L 9.078125 0 
L 9.078125 54.6875 
L 18.109375 54.6875 
L 18.109375 46.1875 
Q 21.1875 51.21875 25.484375 53.609375 
Q 29.78125 56 35.6875 56 
Q 41.65625 56 45.828125 52.96875 
Q 50 49.953125 52 44.1875 
z
" id="DejaVuSans-109"/>
       <path d="M 8.5 21.578125 
L 8.5 54.6875 
L 17.484375 54.6875 
L 17.484375 21.921875 
Q 17.484375 14.15625 20.5 10.265625 
Q 23.53125 6.390625 29.59375 6.390625 
Q 36.859375 6.390625 41.078125 11.03125 
Q 45.3125 15.671875 45.3125 23.6875 
L 45.3125 54.6875 
L 54.296875 54.6875 
L 54.296875 0 
L 45.3125 0 
L 45.3125 8.40625 
Q 42.046875 3.421875 37.71875 1 
Q 33.40625 -1.421875 27.6875 -1.421875 
Q 18.265625 -1.421875 13.375 4.4375 
Q 8.5 10.296875 8.5 21.578125 
z
M 31.109375 56 
z
" id="DejaVuSans-117"/>
      </defs>
      <g style="fill:#262626;" transform="translate(124.890947 385.101671)rotate(-45)scale(0.16 -0.16)">
       <use xlink:href="#DejaVuSans-73"/>
       <use x="29.492188" xlink:href="#DejaVuSans-109"/>
       <use x="126.904297" xlink:href="#DejaVuSans-97"/>
       <use x="188.183594" xlink:href="#DejaVuSans-109"/>
       <use x="285.595703" xlink:href="#DejaVuSans-117"/>
       <use x="348.974609" xlink:href="#DejaVuSans-114"/>
       <use x="390.087891" xlink:href="#DejaVuSans-97"/>
      </g>
     </g>
    </g>
    <g id="xtick_3">
     <g id="line2d_3">
      <g>
       <use style="fill:#262626;stroke:#262626;stroke-width:0.8;" x="250.3125" xlink:href="#m2785822f82" y="313.839536"/>
      </g>
     </g>
     <g id="text_3">
      <!-- Alharbi -->
      <defs>
       <path d="M 34.1875 63.1875 
L 20.796875 26.90625 
L 47.609375 26.90625 
z
M 28.609375 72.90625 
L 39.796875 72.90625 
L 67.578125 0 
L 57.328125 0 
L 50.6875 18.703125 
L 17.828125 18.703125 
L 11.1875 0 
L 0.78125 0 
z
" id="DejaVuSans-65"/>
       <path d="M 9.421875 75.984375 
L 18.40625 75.984375 
L 18.40625 0 
L 9.421875 0 
z
" id="DejaVuSans-108"/>
       <path d="M 9.421875 54.6875 
L 18.40625 54.6875 
L 18.40625 0 
L 9.421875 0 
z
M 9.421875 75.984375 
L 18.40625 75.984375 
L 18.40625 64.59375 
L 9.421875 64.59375 
z
" id="DejaVuSans-105"/>
      </defs>
      <g style="fill:#262626;" transform="translate(207.997462 373.998327)rotate(-45)scale(0.16 -0.16)">
       <use xlink:href="#DejaVuSans-65"/>
       <use x="68.408203" xlink:href="#DejaVuSans-108"/>
       <use x="96.191406" xlink:href="#DejaVuSans-104"/>
       <use x="159.570312" xlink:href="#DejaVuSans-97"/>
       <use x="220.849609" xlink:href="#DejaVuSans-114"/>
       <use x="261.962891" xlink:href="#DejaVuSans-98"/>
       <use x="325.439453" xlink:href="#DejaVuSans-105"/>
      </g>
     </g>
    </g>
    <g id="xtick_4">
     <g id="line2d_4">
      <g>
       <use style="fill:#262626;stroke:#262626;stroke-width:0.8;" x="322.315671" xlink:href="#m2785822f82" y="313.839536"/>
      </g>
     </g>
     <g id="text_4">
      <!-- OPEP / B3LYP -->
      <defs>
       <path d="M 39.40625 66.21875 
Q 28.65625 66.21875 22.328125 58.203125 
Q 16.015625 50.203125 16.015625 36.375 
Q 16.015625 22.609375 22.328125 14.59375 
Q 28.65625 6.59375 39.40625 6.59375 
Q 50.140625 6.59375 56.421875 14.59375 
Q 62.703125 22.609375 62.703125 36.375 
Q 62.703125 50.203125 56.421875 58.203125 
Q 50.140625 66.21875 39.40625 66.21875 
z
M 39.40625 74.21875 
Q 54.734375 74.21875 63.90625 63.9375 
Q 73.09375 53.65625 73.09375 36.375 
Q 73.09375 19.140625 63.90625 8.859375 
Q 54.734375 -1.421875 39.40625 -1.421875 
Q 24.03125 -1.421875 14.8125 8.828125 
Q 5.609375 19.09375 5.609375 36.375 
Q 5.609375 53.65625 14.8125 63.9375 
Q 24.03125 74.21875 39.40625 74.21875 
z
" id="DejaVuSans-79"/>
       <path d="M 19.671875 64.796875 
L 19.671875 37.40625 
L 32.078125 37.40625 
Q 38.96875 37.40625 42.71875 40.96875 
Q 46.484375 44.53125 46.484375 51.125 
Q 46.484375 57.671875 42.71875 61.234375 
Q 38.96875 64.796875 32.078125 64.796875 
z
M 9.8125 72.90625 
L 32.078125 72.90625 
Q 44.34375 72.90625 50.609375 67.359375 
Q 56.890625 61.8125 56.890625 51.125 
Q 56.890625 40.328125 50.609375 34.8125 
Q 44.34375 29.296875 32.078125 29.296875 
L 19.671875 29.296875 
L 19.671875 0 
L 9.8125 0 
z
" id="DejaVuSans-80"/>
       <path d="M 9.8125 72.90625 
L 55.90625 72.90625 
L 55.90625 64.59375 
L 19.671875 64.59375 
L 19.671875 43.015625 
L 54.390625 43.015625 
L 54.390625 34.71875 
L 19.671875 34.71875 
L 19.671875 8.296875 
L 56.78125 8.296875 
L 56.78125 0 
L 9.8125 0 
z
" id="DejaVuSans-69"/>
       <path id="DejaVuSans-32"/>
       <path d="M 25.390625 72.90625 
L 33.6875 72.90625 
L 8.296875 -9.28125 
L 0 -9.28125 
z
" id="DejaVuSans-47"/>
       <path d="M 19.671875 34.8125 
L 19.671875 8.109375 
L 35.5 8.109375 
Q 43.453125 8.109375 47.28125 11.40625 
Q 51.125 14.703125 51.125 21.484375 
Q 51.125 28.328125 47.28125 31.5625 
Q 43.453125 34.8125 35.5 34.8125 
z
M 19.671875 64.796875 
L 19.671875 42.828125 
L 34.28125 42.828125 
Q 41.5 42.828125 45.03125 45.53125 
Q 48.578125 48.25 48.578125 53.8125 
Q 48.578125 59.328125 45.03125 62.0625 
Q 41.5 64.796875 34.28125 64.796875 
z
M 9.8125 72.90625 
L 35.015625 72.90625 
Q 46.296875 72.90625 52.390625 68.21875 
Q 58.5 63.53125 58.5 54.890625 
Q 58.5 48.1875 55.375 44.234375 
Q 52.25 40.28125 46.1875 39.3125 
Q 53.46875 37.75 57.5 32.78125 
Q 61.53125 27.828125 61.53125 20.40625 
Q 61.53125 10.640625 54.890625 5.3125 
Q 48.25 0 35.984375 0 
L 9.8125 0 
z
" id="DejaVuSans-66"/>
       <path d="M 40.578125 39.3125 
Q 47.65625 37.796875 51.625 33 
Q 55.609375 28.21875 55.609375 21.1875 
Q 55.609375 10.40625 48.1875 4.484375 
Q 40.765625 -1.421875 27.09375 -1.421875 
Q 22.515625 -1.421875 17.65625 -0.515625 
Q 12.796875 0.390625 7.625 2.203125 
L 7.625 11.71875 
Q 11.71875 9.328125 16.59375 8.109375 
Q 21.484375 6.890625 26.8125 6.890625 
Q 36.078125 6.890625 40.9375 10.546875 
Q 45.796875 14.203125 45.796875 21.1875 
Q 45.796875 27.640625 41.28125 31.265625 
Q 36.765625 34.90625 28.71875 34.90625 
L 20.21875 34.90625 
L 20.21875 43.015625 
L 29.109375 43.015625 
Q 36.375 43.015625 40.234375 45.921875 
Q 44.09375 48.828125 44.09375 54.296875 
Q 44.09375 59.90625 40.109375 62.90625 
Q 36.140625 65.921875 28.71875 65.921875 
Q 24.65625 65.921875 20.015625 65.03125 
Q 15.375 64.15625 9.8125 62.3125 
L 9.8125 71.09375 
Q 15.4375 72.65625 20.34375 73.4375 
Q 25.25 74.21875 29.59375 74.21875 
Q 40.828125 74.21875 47.359375 69.109375 
Q 53.90625 64.015625 53.90625 55.328125 
Q 53.90625 49.265625 50.4375 45.09375 
Q 46.96875 40.921875 40.578125 39.3125 
z
" id="DejaVuSans-51"/>
       <path d="M 9.8125 72.90625 
L 19.671875 72.90625 
L 19.671875 8.296875 
L 55.171875 8.296875 
L 55.171875 0 
L 9.8125 0 
z
" id="DejaVuSans-76"/>
       <path d="M -0.203125 72.90625 
L 10.40625 72.90625 
L 30.609375 42.921875 
L 50.6875 72.90625 
L 61.28125 72.90625 
L 35.5 34.71875 
L 35.5 0 
L 25.59375 0 
L 25.59375 34.71875 
z
" id="DejaVuSans-89"/>
      </defs>
      <g style="fill:#262626;" transform="translate(244.288206 409.710755)rotate(-45)scale(0.16 -0.16)">
       <use xlink:href="#DejaVuSans-79"/>
       <use x="78.710938" xlink:href="#DejaVuSans-80"/>
       <use x="139.013672" xlink:href="#DejaVuSans-69"/>
       <use x="202.197266" xlink:href="#DejaVuSans-80"/>
       <use x="262.5" xlink:href="#DejaVuSans-32"/>
       <use x="294.287109" xlink:href="#DejaVuSans-47"/>
       <use x="327.978516" xlink:href="#DejaVuSans-32"/>
       <use x="359.765625" xlink:href="#DejaVuSans-66"/>
       <use x="428.369141" xlink:href="#DejaVuSans-51"/>
       <use x="491.992188" xlink:href="#DejaVuSans-76"/>
       <use x="547.501953" xlink:href="#DejaVuSans-89"/>
       <use x="608.585938" xlink:href="#DejaVuSans-80"/>
      </g>
     </g>
    </g>
    <g id="xtick_5">
     <g id="line2d_5">
      <g>
       <use style="fill:#262626;stroke:#262626;stroke-width:0.8;" x="394.318842" xlink:href="#m2785822f82" y="313.839536"/>
      </g>
     </g>
     <g id="text_5">
      <!-- OPEP / sTD-DFT -->
      <defs>
       <path d="M 44.28125 53.078125 
L 44.28125 44.578125 
Q 40.484375 46.53125 36.375 47.5 
Q 32.28125 48.484375 27.875 48.484375 
Q 21.1875 48.484375 17.84375 46.4375 
Q 14.5 44.390625 14.5 40.28125 
Q 14.5 37.15625 16.890625 35.375 
Q 19.28125 33.59375 26.515625 31.984375 
L 29.59375 31.296875 
Q 39.15625 29.25 43.1875 25.515625 
Q 47.21875 21.78125 47.21875 15.09375 
Q 47.21875 7.46875 41.1875 3.015625 
Q 35.15625 -1.421875 24.609375 -1.421875 
Q 20.21875 -1.421875 15.453125 -0.5625 
Q 10.6875 0.296875 5.421875 2 
L 5.421875 11.28125 
Q 10.40625 8.6875 15.234375 7.390625 
Q 20.0625 6.109375 24.8125 6.109375 
Q 31.15625 6.109375 34.5625 8.28125 
Q 37.984375 10.453125 37.984375 14.40625 
Q 37.984375 18.0625 35.515625 20.015625 
Q 33.0625 21.96875 24.703125 23.78125 
L 21.578125 24.515625 
Q 13.234375 26.265625 9.515625 29.90625 
Q 5.8125 33.546875 5.8125 39.890625 
Q 5.8125 47.609375 11.28125 51.796875 
Q 16.75 56 26.8125 56 
Q 31.78125 56 36.171875 55.265625 
Q 40.578125 54.546875 44.28125 53.078125 
z
" id="DejaVuSans-115"/>
       <path d="M -0.296875 72.90625 
L 61.375 72.90625 
L 61.375 64.59375 
L 35.5 64.59375 
L 35.5 0 
L 25.59375 0 
L 25.59375 64.59375 
L -0.296875 64.59375 
z
" id="DejaVuSans-84"/>
       <path d="M 19.671875 64.796875 
L 19.671875 8.109375 
L 31.59375 8.109375 
Q 46.6875 8.109375 53.6875 14.9375 
Q 60.6875 21.78125 60.6875 36.53125 
Q 60.6875 51.171875 53.6875 57.984375 
Q 46.6875 64.796875 31.59375 64.796875 
z
M 9.8125 72.90625 
L 30.078125 72.90625 
Q 51.265625 72.90625 61.171875 64.09375 
Q 71.09375 55.28125 71.09375 36.53125 
Q 71.09375 17.671875 61.125 8.828125 
Q 51.171875 0 30.078125 0 
L 9.8125 0 
z
" id="DejaVuSans-68"/>
       <path d="M 4.890625 31.390625 
L 31.203125 31.390625 
L 31.203125 23.390625 
L 4.890625 23.390625 
z
" id="DejaVuSans-45"/>
       <path d="M 9.8125 72.90625 
L 51.703125 72.90625 
L 51.703125 64.59375 
L 19.671875 64.59375 
L 19.671875 43.109375 
L 48.578125 43.109375 
L 48.578125 34.8125 
L 19.671875 34.8125 
L 19.671875 0 
L 9.8125 0 
z
" id="DejaVuSans-70"/>
      </defs>
      <g style="fill:#262626;" transform="translate(303.540474 422.461658)rotate(-45)scale(0.16 -0.16)">
       <use xlink:href="#DejaVuSans-79"/>
       <use x="78.710938" xlink:href="#DejaVuSans-80"/>
       <use x="139.013672" xlink:href="#DejaVuSans-69"/>
       <use x="202.197266" xlink:href="#DejaVuSans-80"/>
       <use x="262.5" xlink:href="#DejaVuSans-32"/>
       <use x="294.287109" xlink:href="#DejaVuSans-47"/>
       <use x="327.978516" xlink:href="#DejaVuSans-32"/>
       <use x="359.765625" xlink:href="#DejaVuSans-115"/>
       <use x="411.865234" xlink:href="#DejaVuSans-84"/>
       <use x="472.949219" xlink:href="#DejaVuSans-68"/>
       <use x="549.951172" xlink:href="#DejaVuSans-45"/>
       <use x="586.035156" xlink:href="#DejaVuSans-68"/>
       <use x="663.037109" xlink:href="#DejaVuSans-70"/>
       <use x="720.541016" xlink:href="#DejaVuSans-84"/>
      </g>
     </g>
    </g>
   </g>
   <g id="matplotlib.axis_2">
    <g id="ytick_1">
     <g id="line2d_6">
      <defs>
       <path d="M 0 0 
L -6 0 
" id="mc380cffd5f" style="stroke:#262626;stroke-width:0.8;"/>
      </defs>
      <g>
       <use style="fill:#262626;stroke:#262626;stroke-width:0.8;" x="80.025" xlink:href="#mc380cffd5f" y="313.839536"/>
      </g>
     </g>
     <g id="text_6">
      <!-- 0 -->
      <defs>
       <path d="M 31.78125 66.40625 
Q 24.171875 66.40625 20.328125 58.90625 
Q 16.5 51.421875 16.5 36.375 
Q 16.5 21.390625 20.328125 13.890625 
Q 24.171875 6.390625 31.78125 6.390625 
Q 39.453125 6.390625 43.28125 13.890625 
Q 47.125 21.390625 47.125 36.375 
Q 47.125 51.421875 43.28125 58.90625 
Q 39.453125 66.40625 31.78125 66.40625 
z
M 31.78125 74.21875 
Q 44.046875 74.21875 50.515625 64.515625 
Q 56.984375 54.828125 56.984375 36.375 
Q 56.984375 17.96875 50.515625 8.265625 
Q 44.046875 -1.421875 31.78125 -1.421875 
Q 19.53125 -1.421875 13.0625 8.265625 
Q 6.59375 17.96875 6.59375 36.375 
Q 6.59375 54.828125 13.0625 64.515625 
Q 19.53125 74.21875 31.78125 74.21875 
z
" id="DejaVuSans-48"/>
      </defs>
      <g style="fill:#262626;" transform="translate(58.245 319.918286)scale(0.16 -0.16)">
       <use xlink:href="#DejaVuSans-48"/>
      </g>
     </g>
    </g>
    <g id="ytick_2">
     <g id="line2d_7">
      <g>
       <use style="fill:#262626;stroke:#262626;stroke-width:0.8;" x="80.025" xlink:href="#mc380cffd5f" y="276.219217"/>
      </g>
     </g>
     <g id="text_7">
      <!-- 1 -->
      <defs>
       <path d="M 12.40625 8.296875 
L 28.515625 8.296875 
L 28.515625 63.921875 
L 10.984375 60.40625 
L 10.984375 69.390625 
L 28.421875 72.90625 
L 38.28125 72.90625 
L 38.28125 8.296875 
L 54.390625 8.296875 
L 54.390625 0 
L 12.40625 0 
z
" id="DejaVuSans-49"/>
      </defs>
      <g style="fill:#262626;" transform="translate(58.245 282.297967)scale(0.16 -0.16)">
       <use xlink:href="#DejaVuSans-49"/>
      </g>
     </g>
    </g>
    <g id="ytick_3">
     <g id="line2d_8">
      <g>
       <use style="fill:#262626;stroke:#262626;stroke-width:0.8;" x="80.025" xlink:href="#mc380cffd5f" y="238.598897"/>
      </g>
     </g>
     <g id="text_8">
      <!-- 2 -->
      <defs>
       <path d="M 19.1875 8.296875 
L 53.609375 8.296875 
L 53.609375 0 
L 7.328125 0 
L 7.328125 8.296875 
Q 12.9375 14.109375 22.625 23.890625 
Q 32.328125 33.6875 34.8125 36.53125 
Q 39.546875 41.84375 41.421875 45.53125 
Q 43.3125 49.21875 43.3125 52.78125 
Q 43.3125 58.59375 39.234375 62.25 
Q 35.15625 65.921875 28.609375 65.921875 
Q 23.96875 65.921875 18.8125 64.3125 
Q 13.671875 62.703125 7.8125 59.421875 
L 7.8125 69.390625 
Q 13.765625 71.78125 18.9375 73 
Q 24.125 74.21875 28.421875 74.21875 
Q 39.75 74.21875 46.484375 68.546875 
Q 53.21875 62.890625 53.21875 53.421875 
Q 53.21875 48.921875 51.53125 44.890625 
Q 49.859375 40.875 45.40625 35.40625 
Q 44.1875 33.984375 37.640625 27.21875 
Q 31.109375 20.453125 19.1875 8.296875 
z
" id="DejaVuSans-50"/>
      </defs>
      <g style="fill:#262626;" transform="translate(58.245 244.677647)scale(0.16 -0.16)">
       <use xlink:href="#DejaVuSans-50"/>
      </g>
     </g>
    </g>
    <g id="ytick_4">
     <g id="line2d_9">
      <g>
       <use style="fill:#262626;stroke:#262626;stroke-width:0.8;" x="80.025" xlink:href="#mc380cffd5f" y="200.978577"/>
      </g>
     </g>
     <g id="text_9">
      <!-- 3 -->
      <g style="fill:#262626;" transform="translate(58.245 207.057327)scale(0.16 -0.16)">
       <use xlink:href="#DejaVuSans-51"/>
      </g>
     </g>
    </g>
    <g id="ytick_5">
     <g id="line2d_10">
      <g>
       <use style="fill:#262626;stroke:#262626;stroke-width:0.8;" x="80.025" xlink:href="#mc380cffd5f" y="163.358258"/>
      </g>
     </g>
     <g id="text_10">
      <!-- 4 -->
      <defs>
       <path d="M 37.796875 64.3125 
L 12.890625 25.390625 
L 37.796875 25.390625 
z
M 35.203125 72.90625 
L 47.609375 72.90625 
L 47.609375 25.390625 
L 58.015625 25.390625 
L 58.015625 17.1875 
L 47.609375 17.1875 
L 47.609375 0 
L 37.796875 0 
L 37.796875 17.1875 
L 4.890625 17.1875 
L 4.890625 26.703125 
z
" id="DejaVuSans-52"/>
      </defs>
      <g style="fill:#262626;" transform="translate(58.245 169.437008)scale(0.16 -0.16)">
       <use xlink:href="#DejaVuSans-52"/>
      </g>
     </g>
    </g>
    <g id="ytick_6">
     <g id="line2d_11">
      <g>
       <use style="fill:#262626;stroke:#262626;stroke-width:0.8;" x="80.025" xlink:href="#mc380cffd5f" y="125.737938"/>
      </g>
     </g>
     <g id="text_11">
      <!-- 5 -->
      <defs>
       <path d="M 10.796875 72.90625 
L 49.515625 72.90625 
L 49.515625 64.59375 
L 19.828125 64.59375 
L 19.828125 46.734375 
Q 21.96875 47.46875 24.109375 47.828125 
Q 26.265625 48.1875 28.421875 48.1875 
Q 40.625 48.1875 47.75 41.5 
Q 54.890625 34.8125 54.890625 23.390625 
Q 54.890625 11.625 47.5625 5.09375 
Q 40.234375 -1.421875 26.90625 -1.421875 
Q 22.3125 -1.421875 17.546875 -0.640625 
Q 12.796875 0.140625 7.71875 1.703125 
L 7.71875 11.625 
Q 12.109375 9.234375 16.796875 8.0625 
Q 21.484375 6.890625 26.703125 6.890625 
Q 35.15625 6.890625 40.078125 11.328125 
Q 45.015625 15.765625 45.015625 23.390625 
Q 45.015625 31 40.078125 35.4375 
Q 35.15625 39.890625 26.703125 39.890625 
Q 22.75 39.890625 18.8125 39.015625 
Q 14.890625 38.140625 10.796875 36.28125 
z
" id="DejaVuSans-53"/>
      </defs>
      <g style="fill:#262626;" transform="translate(58.245 131.816688)scale(0.16 -0.16)">
       <use xlink:href="#DejaVuSans-53"/>
      </g>
     </g>
    </g>
    <g id="ytick_7">
     <g id="line2d_12">
      <g>
       <use style="fill:#262626;stroke:#262626;stroke-width:0.8;" x="80.025" xlink:href="#mc380cffd5f" y="88.117618"/>
      </g>
     </g>
     <g id="text_12">
      <!-- 6 -->
      <defs>
       <path d="M 33.015625 40.375 
Q 26.375 40.375 22.484375 35.828125 
Q 18.609375 31.296875 18.609375 23.390625 
Q 18.609375 15.53125 22.484375 10.953125 
Q 26.375 6.390625 33.015625 6.390625 
Q 39.65625 6.390625 43.53125 10.953125 
Q 47.40625 15.53125 47.40625 23.390625 
Q 47.40625 31.296875 43.53125 35.828125 
Q 39.65625 40.375 33.015625 40.375 
z
M 52.59375 71.296875 
L 52.59375 62.3125 
Q 48.875 64.0625 45.09375 64.984375 
Q 41.3125 65.921875 37.59375 65.921875 
Q 27.828125 65.921875 22.671875 59.328125 
Q 17.53125 52.734375 16.796875 39.40625 
Q 19.671875 43.65625 24.015625 45.921875 
Q 28.375 48.1875 33.59375 48.1875 
Q 44.578125 48.1875 50.953125 41.515625 
Q 57.328125 34.859375 57.328125 23.390625 
Q 57.328125 12.15625 50.6875 5.359375 
Q 44.046875 -1.421875 33.015625 -1.421875 
Q 20.359375 -1.421875 13.671875 8.265625 
Q 6.984375 17.96875 6.984375 36.375 
Q 6.984375 53.65625 15.1875 63.9375 
Q 23.390625 74.21875 37.203125 74.21875 
Q 40.921875 74.21875 44.703125 73.484375 
Q 48.484375 72.75 52.59375 71.296875 
z
" id="DejaVuSans-54"/>
      </defs>
      <g style="fill:#262626;" transform="translate(58.245 94.196368)scale(0.16 -0.16)">
       <use xlink:href="#DejaVuSans-54"/>
      </g>
     </g>
    </g>
    <g id="ytick_8">
     <g id="line2d_13">
      <g>
       <use style="fill:#262626;stroke:#262626;stroke-width:0.8;" x="80.025" xlink:href="#mc380cffd5f" y="50.497299"/>
      </g>
     </g>
     <g id="text_13">
      <!-- 7 -->
      <defs>
       <path d="M 8.203125 72.90625 
L 55.078125 72.90625 
L 55.078125 68.703125 
L 28.609375 0 
L 18.3125 0 
L 43.21875 64.59375 
L 8.203125 64.59375 
z
" id="DejaVuSans-55"/>
      </defs>
      <g style="fill:#262626;" transform="translate(58.245 56.576049)scale(0.16 -0.16)">
       <use xlink:href="#DejaVuSans-55"/>
      </g>
     </g>
    </g>
    <g id="text_14">
     <!-- % -->
     <defs>
      <path d="M 72.703125 32.078125 
Q 68.453125 32.078125 66.03125 28.46875 
Q 63.625 24.859375 63.625 18.40625 
Q 63.625 12.0625 66.03125 8.421875 
Q 68.453125 4.78125 72.703125 4.78125 
Q 76.859375 4.78125 79.265625 8.421875 
Q 81.6875 12.0625 81.6875 18.40625 
Q 81.6875 24.8125 79.265625 28.4375 
Q 76.859375 32.078125 72.703125 32.078125 
z
M 72.703125 38.28125 
Q 80.421875 38.28125 84.953125 32.90625 
Q 89.5 27.546875 89.5 18.40625 
Q 89.5 9.28125 84.9375 3.921875 
Q 80.375 -1.421875 72.703125 -1.421875 
Q 64.890625 -1.421875 60.34375 3.921875 
Q 55.8125 9.28125 55.8125 18.40625 
Q 55.8125 27.59375 60.375 32.9375 
Q 64.9375 38.28125 72.703125 38.28125 
z
M 22.3125 68.015625 
Q 18.109375 68.015625 15.6875 64.375 
Q 13.28125 60.75 13.28125 54.390625 
Q 13.28125 47.953125 15.671875 44.328125 
Q 18.0625 40.71875 22.3125 40.71875 
Q 26.5625 40.71875 28.96875 44.328125 
Q 31.390625 47.953125 31.390625 54.390625 
Q 31.390625 60.6875 28.953125 64.34375 
Q 26.515625 68.015625 22.3125 68.015625 
z
M 66.40625 74.21875 
L 74.21875 74.21875 
L 28.609375 -1.421875 
L 20.796875 -1.421875 
z
M 22.3125 74.21875 
Q 30.03125 74.21875 34.609375 68.875 
Q 39.203125 63.53125 39.203125 54.390625 
Q 39.203125 45.171875 34.640625 39.84375 
Q 30.078125 34.515625 22.3125 34.515625 
Q 14.546875 34.515625 10.03125 39.859375 
Q 5.515625 45.21875 5.515625 54.390625 
Q 5.515625 63.484375 10.046875 68.84375 
Q 14.59375 74.21875 22.3125 74.21875 
z
" id="DejaVuSans-37"/>
     </defs>
     <g style="fill:#262626;" transform="translate(50.58475 181.181143)rotate(-90)scale(0.176 -0.176)">
      <use xlink:href="#DejaVuSans-37"/>
     </g>
    </g>
   </g>
   <g id="patch_3">
    <path clip-path="url(#p6e84ca5107)" d="M 95.505682 313.839536 
L 117.106633 313.839536 
L 117.106633 61.783395 
L 95.505682 61.783395 
z
" style="fill:#b22222;"/>
   </g>
   <g id="patch_4">
    <path clip-path="url(#p6e84ca5107)" d="M 167.508853 313.839536 
L 189.109804 313.839536 
L 189.109804 61.783395 
L 167.508853 61.783395 
z
" style="fill:#b22222;"/>
   </g>
   <g id="patch_5">
    <path clip-path="url(#p6e84ca5107)" d="M 239.512024 313.839536 
L 261.112976 313.839536 
L 261.112976 85.484196 
L 239.512024 85.484196 
z
" style="fill:#b22222;"/>
   </g>
   <g id="patch_6">
    <path clip-path="url(#p6e84ca5107)" d="M 311.515196 313.839536 
L 333.116147 313.839536 
L 333.116147 134.330419 
L 311.515196 134.330419 
z
" style="fill:#b22222;"/>
   </g>
   <g id="patch_7">
    <path clip-path="url(#p6e84ca5107)" d="M 383.518367 313.839536 
L 405.119318 313.839536 
L 405.119318 114.884476 
L 383.518367 114.884476 
z
" style="fill:#b22222;"/>
   </g>
   <g id="LineCollection_1">
    <path clip-path="url(#p6e84ca5107)" d="M 106.306158 78.336335 
L 106.306158 45.230454 
" style="fill:none;stroke:#000000;stroke-width:1.4;"/>
    <path clip-path="url(#p6e84ca5107)" d="M 178.309329 78.336335 
L 178.309329 45.230454 
" style="fill:none;stroke:#000000;stroke-width:1.4;"/>
    <path clip-path="url(#p6e84ca5107)" d="M 250.3125 101.28473 
L 250.3125 69.683662 
" style="fill:none;stroke:#000000;stroke-width:1.4;"/>
    <path clip-path="url(#p6e84ca5107)" d="M 322.315671 136.71329 
L 322.315671 131.947548 
" style="fill:none;stroke:#000000;stroke-width:1.4;"/>
    <path clip-path="url(#p6e84ca5107)" d="M 394.318842 117.4404 
L 394.318842 112.328551 
" style="fill:none;stroke:#000000;stroke-width:1.4;"/>
   </g>
   <g id="patch_8">
    <path d="M 80.025 313.839536 
L 80.025 31.8 
" style="fill:none;stroke:#262626;stroke-linecap:square;stroke-linejoin:miter;stroke-width:1.25;"/>
   </g>
   <g id="patch_9">
    <path d="M 420.6 313.839536 
L 420.6 31.8 
" style="fill:none;stroke:#262626;stroke-linecap:square;stroke-linejoin:miter;stroke-width:1.25;"/>
   </g>
   <g id="patch_10">
    <path d="M 80.025 313.839536 
L 420.6 313.839536 
" style="fill:none;stroke:#262626;stroke-linecap:square;stroke-linejoin:miter;stroke-width:1.25;"/>
   </g>
   <g id="patch_11">
    <path d="M 80.025 31.8 
L 420.6 31.8 
" style="fill:none;stroke:#262626;stroke-linecap:square;stroke-linejoin:miter;stroke-width:1.25;"/>
   </g>
   <g id="text_15">
    <!-- FF -->
    <defs>
     <path d="M 9.1875 72.90625 
L 59.90625 72.90625 
L 59.90625 58.6875 
L 27.984375 58.6875 
L 27.984375 45.125 
L 58.015625 45.125 
L 58.015625 30.90625 
L 27.984375 30.90625 
L 27.984375 0 
L 9.1875 0 
z
" id="DejaVuSans-Bold-70"/>
    </defs>
    <g style="fill:#262626;" transform="translate(237.1965 25.8)scale(0.192 -0.192)">
     <use xlink:href="#DejaVuSans-Bold-70"/>
     <use x="68.310547" xlink:href="#DejaVuSans-Bold-70"/>
    </g>
   </g>
   <g id="legend_1">
    <g id="patch_12">
     <path d="M 316.8925 58.3575 
L 348.8925 58.3575 
L 348.8925 47.1575 
L 316.8925 47.1575 
z
" style="fill:#b22222;"/>
    </g>
    <g id="text_16">
     <!-- MAPE -->
     <defs>
      <path d="M 9.8125 72.90625 
L 24.515625 72.90625 
L 43.109375 23.296875 
L 61.8125 72.90625 
L 76.515625 72.90625 
L 76.515625 0 
L 66.890625 0 
L 66.890625 64.015625 
L 48.09375 14.015625 
L 38.1875 14.015625 
L 19.390625 64.015625 
L 19.390625 0 
L 9.8125 0 
z
" id="DejaVuSans-77"/>
     </defs>
     <g style="fill:#262626;" transform="translate(361.6925 58.3575)scale(0.16 -0.16)">
      <use xlink:href="#DejaVuSans-77"/>
      <use x="86.279297" xlink:href="#DejaVuSans-65"/>
      <use x="154.6875" xlink:href="#DejaVuSans-80"/>
      <use x="214.990234" xlink:href="#DejaVuSans-69"/>
     </g>
    </g>
   </g>
  </g>
  <g id="axes_2">
   <g id="patch_13">
    <path d="M 506.625 313.839536 
L 847.2 313.839536 
L 847.2 31.8 
L 506.625 31.8 
z
" style="fill:#ffffff;"/>
   </g>
   <g id="matplotlib.axis_3">
    <g id="xtick_6">
     <g id="line2d_14">
      <g>
       <use style="fill:#262626;stroke:#262626;stroke-width:0.8;" x="532.906158" xlink:href="#m2785822f82" y="313.839536"/>
      </g>
     </g>
     <g id="text_17">
      <!-- Scharber -->
      <g style="fill:#262626;" transform="translate(479.600913 384.988534)rotate(-45)scale(0.16 -0.16)">
       <use xlink:href="#DejaVuSans-83"/>
       <use x="63.476562" xlink:href="#DejaVuSans-99"/>
       <use x="118.457031" xlink:href="#DejaVuSans-104"/>
       <use x="181.835938" xlink:href="#DejaVuSans-97"/>
       <use x="243.115234" xlink:href="#DejaVuSans-114"/>
       <use x="284.228516" xlink:href="#DejaVuSans-98"/>
       <use x="347.705078" xlink:href="#DejaVuSans-101"/>
       <use x="409.228516" xlink:href="#DejaVuSans-114"/>
      </g>
     </g>
    </g>
    <g id="xtick_7">
     <g id="line2d_15">
      <g>
       <use style="fill:#262626;stroke:#262626;stroke-width:0.8;" x="604.909329" xlink:href="#m2785822f82" y="313.839536"/>
      </g>
     </g>
     <g id="text_18">
      <!-- Imamura -->
      <g style="fill:#262626;" transform="translate(551.490947 385.101671)rotate(-45)scale(0.16 -0.16)">
       <use xlink:href="#DejaVuSans-73"/>
       <use x="29.492188" xlink:href="#DejaVuSans-109"/>
       <use x="126.904297" xlink:href="#DejaVuSans-97"/>
       <use x="188.183594" xlink:href="#DejaVuSans-109"/>
       <use x="285.595703" xlink:href="#DejaVuSans-117"/>
       <use x="348.974609" xlink:href="#DejaVuSans-114"/>
       <use x="390.087891" xlink:href="#DejaVuSans-97"/>
      </g>
     </g>
    </g>
    <g id="xtick_8">
     <g id="line2d_16">
      <g>
       <use style="fill:#262626;stroke:#262626;stroke-width:0.8;" x="676.9125" xlink:href="#m2785822f82" y="313.839536"/>
      </g>
     </g>
     <g id="text_19">
      <!-- Alharbi -->
      <g style="fill:#262626;" transform="translate(634.597462 373.998327)rotate(-45)scale(0.16 -0.16)">
       <use xlink:href="#DejaVuSans-65"/>
       <use x="68.408203" xlink:href="#DejaVuSans-108"/>
       <use x="96.191406" xlink:href="#DejaVuSans-104"/>
       <use x="159.570312" xlink:href="#DejaVuSans-97"/>
       <use x="220.849609" xlink:href="#DejaVuSans-114"/>
       <use x="261.962891" xlink:href="#DejaVuSans-98"/>
       <use x="325.439453" xlink:href="#DejaVuSans-105"/>
      </g>
     </g>
    </g>
    <g id="xtick_9">
     <g id="line2d_17">
      <g>
       <use style="fill:#262626;stroke:#262626;stroke-width:0.8;" x="748.915671" xlink:href="#m2785822f82" y="313.839536"/>
      </g>
     </g>
     <g id="text_20">
      <!-- OPEP / B3LYP -->
      <g style="fill:#262626;" transform="translate(670.888206 409.710755)rotate(-45)scale(0.16 -0.16)">
       <use xlink:href="#DejaVuSans-79"/>
       <use x="78.710938" xlink:href="#DejaVuSans-80"/>
       <use x="139.013672" xlink:href="#DejaVuSans-69"/>
       <use x="202.197266" xlink:href="#DejaVuSans-80"/>
       <use x="262.5" xlink:href="#DejaVuSans-32"/>
       <use x="294.287109" xlink:href="#DejaVuSans-47"/>
       <use x="327.978516" xlink:href="#DejaVuSans-32"/>
       <use x="359.765625" xlink:href="#DejaVuSans-66"/>
       <use x="428.369141" xlink:href="#DejaVuSans-51"/>
       <use x="491.992188" xlink:href="#DejaVuSans-76"/>
       <use x="547.501953" xlink:href="#DejaVuSans-89"/>
       <use x="608.585938" xlink:href="#DejaVuSans-80"/>
      </g>
     </g>
    </g>
    <g id="xtick_10">
     <g id="line2d_18">
      <g>
       <use style="fill:#262626;stroke:#262626;stroke-width:0.8;" x="820.918842" xlink:href="#m2785822f82" y="313.839536"/>
      </g>
     </g>
     <g id="text_21">
      <!-- OPEP / sTD-DFT -->
      <g style="fill:#262626;" transform="translate(730.140474 422.461658)rotate(-45)scale(0.16 -0.16)">
       <use xlink:href="#DejaVuSans-79"/>
       <use x="78.710938" xlink:href="#DejaVuSans-80"/>
       <use x="139.013672" xlink:href="#DejaVuSans-69"/>
       <use x="202.197266" xlink:href="#DejaVuSans-80"/>
       <use x="262.5" xlink:href="#DejaVuSans-32"/>
       <use x="294.287109" xlink:href="#DejaVuSans-47"/>
       <use x="327.978516" xlink:href="#DejaVuSans-32"/>
       <use x="359.765625" xlink:href="#DejaVuSans-115"/>
       <use x="411.865234" xlink:href="#DejaVuSans-84"/>
       <use x="472.949219" xlink:href="#DejaVuSans-68"/>
       <use x="549.951172" xlink:href="#DejaVuSans-45"/>
       <use x="586.035156" xlink:href="#DejaVuSans-68"/>
       <use x="663.037109" xlink:href="#DejaVuSans-70"/>
       <use x="720.541016" xlink:href="#DejaVuSans-84"/>
      </g>
     </g>
    </g>
   </g>
   <g id="matplotlib.axis_4">
    <g id="ytick_9">
     <g id="line2d_19">
      <g>
       <use style="fill:#262626;stroke:#262626;stroke-width:0.8;" x="506.625" xlink:href="#mc380cffd5f" y="313.839536"/>
      </g>
     </g>
     <g id="text_22">
      <!-- 0 -->
      <g style="fill:#262626;" transform="translate(484.845 319.918286)scale(0.16 -0.16)">
       <use xlink:href="#DejaVuSans-48"/>
      </g>
     </g>
    </g>
    <g id="ytick_10">
     <g id="line2d_20">
      <g>
       <use style="fill:#262626;stroke:#262626;stroke-width:0.8;" x="506.625" xlink:href="#mc380cffd5f" y="259.629832"/>
      </g>
     </g>
     <g id="text_23">
      <!-- 2 -->
      <g style="fill:#262626;" transform="translate(484.845 265.708582)scale(0.16 -0.16)">
       <use xlink:href="#DejaVuSans-50"/>
      </g>
     </g>
    </g>
    <g id="ytick_11">
     <g id="line2d_21">
      <g>
       <use style="fill:#262626;stroke:#262626;stroke-width:0.8;" x="506.625" xlink:href="#mc380cffd5f" y="205.420129"/>
      </g>
     </g>
     <g id="text_24">
      <!-- 4 -->
      <g style="fill:#262626;" transform="translate(484.845 211.498879)scale(0.16 -0.16)">
       <use xlink:href="#DejaVuSans-52"/>
      </g>
     </g>
    </g>
    <g id="ytick_12">
     <g id="line2d_22">
      <g>
       <use style="fill:#262626;stroke:#262626;stroke-width:0.8;" x="506.625" xlink:href="#mc380cffd5f" y="151.210425"/>
      </g>
     </g>
     <g id="text_25">
      <!-- 6 -->
      <g style="fill:#262626;" transform="translate(484.845 157.289175)scale(0.16 -0.16)">
       <use xlink:href="#DejaVuSans-54"/>
      </g>
     </g>
    </g>
    <g id="ytick_13">
     <g id="line2d_23">
      <g>
       <use style="fill:#262626;stroke:#262626;stroke-width:0.8;" x="506.625" xlink:href="#mc380cffd5f" y="97.000721"/>
      </g>
     </g>
     <g id="text_26">
      <!-- 8 -->
      <defs>
       <path d="M 31.78125 34.625 
Q 24.75 34.625 20.71875 30.859375 
Q 16.703125 27.09375 16.703125 20.515625 
Q 16.703125 13.921875 20.71875 10.15625 
Q 24.75 6.390625 31.78125 6.390625 
Q 38.8125 6.390625 42.859375 10.171875 
Q 46.921875 13.96875 46.921875 20.515625 
Q 46.921875 27.09375 42.890625 30.859375 
Q 38.875 34.625 31.78125 34.625 
z
M 21.921875 38.8125 
Q 15.578125 40.375 12.03125 44.71875 
Q 8.5 49.078125 8.5 55.328125 
Q 8.5 64.0625 14.71875 69.140625 
Q 20.953125 74.21875 31.78125 74.21875 
Q 42.671875 74.21875 48.875 69.140625 
Q 55.078125 64.0625 55.078125 55.328125 
Q 55.078125 49.078125 51.53125 44.71875 
Q 48 40.375 41.703125 38.8125 
Q 48.828125 37.15625 52.796875 32.3125 
Q 56.78125 27.484375 56.78125 20.515625 
Q 56.78125 9.90625 50.3125 4.234375 
Q 43.84375 -1.421875 31.78125 -1.421875 
Q 19.734375 -1.421875 13.25 4.234375 
Q 6.78125 9.90625 6.78125 20.515625 
Q 6.78125 27.484375 10.78125 32.3125 
Q 14.796875 37.15625 21.921875 38.8125 
z
M 18.3125 54.390625 
Q 18.3125 48.734375 21.84375 45.5625 
Q 25.390625 42.390625 31.78125 42.390625 
Q 38.140625 42.390625 41.71875 45.5625 
Q 45.3125 48.734375 45.3125 54.390625 
Q 45.3125 60.0625 41.71875 63.234375 
Q 38.140625 66.40625 31.78125 66.40625 
Q 25.390625 66.40625 21.84375 63.234375 
Q 18.3125 60.0625 18.3125 54.390625 
z
" id="DejaVuSans-56"/>
      </defs>
      <g style="fill:#262626;" transform="translate(484.845 103.079471)scale(0.16 -0.16)">
       <use xlink:href="#DejaVuSans-56"/>
      </g>
     </g>
    </g>
    <g id="ytick_14">
     <g id="line2d_24">
      <g>
       <use style="fill:#262626;stroke:#262626;stroke-width:0.8;" x="506.625" xlink:href="#mc380cffd5f" y="42.791017"/>
      </g>
     </g>
     <g id="text_27">
      <!-- 10 -->
      <g style="fill:#262626;" transform="translate(474.665 48.869767)scale(0.16 -0.16)">
       <use xlink:href="#DejaVuSans-49"/>
       <use x="63.623047" xlink:href="#DejaVuSans-48"/>
      </g>
     </g>
    </g>
    <g id="text_28">
     <!-- % -->
     <g style="fill:#262626;" transform="translate(467.00475 181.181143)rotate(-90)scale(0.176 -0.176)">
      <use xlink:href="#DejaVuSans-37"/>
     </g>
    </g>
   </g>
   <g id="patch_14">
    <path clip-path="url(#pdfebec1b47)" d="M 522.105682 313.839536 
L 543.706633 313.839536 
L 543.706633 112.179438 
L 522.105682 112.179438 
z
" style="fill:#b22222;"/>
   </g>
   <g id="patch_15">
    <path clip-path="url(#pdfebec1b47)" d="M 594.108853 313.839536 
L 615.709804 313.839536 
L 615.709804 112.179438 
L 594.108853 112.179438 
z
" style="fill:#b22222;"/>
   </g>
   <g id="patch_16">
    <path clip-path="url(#pdfebec1b47)" d="M 666.112024 313.839536 
L 687.712976 313.839536 
L 687.712976 74.503694 
L 666.112024 74.503694 
z
" style="fill:#b22222;"/>
   </g>
   <g id="patch_17">
    <path clip-path="url(#pdfebec1b47)" d="M 738.115196 313.839536 
L 759.716147 313.839536 
L 759.716147 149.72779 
L 738.115196 149.72779 
z
" style="fill:#b22222;"/>
   </g>
   <g id="patch_18">
    <path clip-path="url(#pdfebec1b47)" d="M 810.118367 313.839536 
L 831.719318 313.839536 
L 831.719318 169.503489 
L 810.118367 169.503489 
z
" style="fill:#b22222;"/>
   </g>
   <g id="LineCollection_2">
    <path clip-path="url(#pdfebec1b47)" d="M 532.906158 130.339689 
L 532.906158 94.019187 
" style="fill:none;stroke:#000000;stroke-width:1.4;"/>
    <path clip-path="url(#pdfebec1b47)" d="M 604.909329 130.339689 
L 604.909329 94.019187 
" style="fill:none;stroke:#000000;stroke-width:1.4;"/>
    <path clip-path="url(#pdfebec1b47)" d="M 676.9125 103.776934 
L 676.9125 45.230454 
" style="fill:none;stroke:#000000;stroke-width:1.4;"/>
    <path clip-path="url(#pdfebec1b47)" d="M 748.915671 153.228652 
L 748.915671 146.226927 
" style="fill:none;stroke:#000000;stroke-width:1.4;"/>
    <path clip-path="url(#pdfebec1b47)" d="M 820.918842 172.929001 
L 820.918842 166.077978 
" style="fill:none;stroke:#000000;stroke-width:1.4;"/>
   </g>
   <g id="patch_19">
    <path d="M 506.625 313.839536 
L 506.625 31.8 
" style="fill:none;stroke:#262626;stroke-linecap:square;stroke-linejoin:miter;stroke-width:1.25;"/>
   </g>
   <g id="patch_20">
    <path d="M 847.2 313.839536 
L 847.2 31.8 
" style="fill:none;stroke:#262626;stroke-linecap:square;stroke-linejoin:miter;stroke-width:1.25;"/>
   </g>
   <g id="patch_21">
    <path d="M 506.625 313.839536 
L 847.2 313.839536 
" style="fill:none;stroke:#262626;stroke-linecap:square;stroke-linejoin:miter;stroke-width:1.25;"/>
   </g>
   <g id="patch_22">
    <path d="M 506.625 31.8 
L 847.2 31.8 
" style="fill:none;stroke:#262626;stroke-linecap:square;stroke-linejoin:miter;stroke-width:1.25;"/>
   </g>
   <g id="text_29">
    <!-- Voc -->
    <defs>
     <path d="M 0.484375 72.90625 
L 19.390625 72.90625 
L 38.71875 19.09375 
L 58.015625 72.90625 
L 76.90625 72.90625 
L 49.90625 0 
L 27.484375 0 
z
" id="DejaVuSans-Bold-86"/>
     <path d="M 34.421875 43.5 
Q 28.609375 43.5 25.5625 39.328125 
Q 22.515625 35.15625 22.515625 27.296875 
Q 22.515625 19.4375 25.5625 15.25 
Q 28.609375 11.078125 34.421875 11.078125 
Q 40.140625 11.078125 43.15625 15.25 
Q 46.1875 19.4375 46.1875 27.296875 
Q 46.1875 35.15625 43.15625 39.328125 
Q 40.140625 43.5 34.421875 43.5 
z
M 34.421875 56 
Q 48.53125 56 56.46875 48.375 
Q 64.40625 40.765625 64.40625 27.296875 
Q 64.40625 13.8125 56.46875 6.1875 
Q 48.53125 -1.421875 34.421875 -1.421875 
Q 20.265625 -1.421875 12.28125 6.1875 
Q 4.296875 13.8125 4.296875 27.296875 
Q 4.296875 40.765625 12.28125 48.375 
Q 20.265625 56 34.421875 56 
z
" id="DejaVuSans-Bold-111"/>
     <path d="M 52.59375 52.984375 
L 52.59375 38.71875 
Q 49.03125 41.15625 45.4375 42.328125 
Q 41.84375 43.5 37.984375 43.5 
Q 30.671875 43.5 26.59375 39.234375 
Q 22.515625 34.96875 22.515625 27.296875 
Q 22.515625 19.625 26.59375 15.34375 
Q 30.671875 11.078125 37.984375 11.078125 
Q 42.09375 11.078125 45.78125 12.296875 
Q 49.46875 13.53125 52.59375 15.921875 
L 52.59375 1.609375 
Q 48.484375 0.09375 44.265625 -0.65625 
Q 40.046875 -1.421875 35.796875 -1.421875 
Q 21 -1.421875 12.640625 6.171875 
Q 4.296875 13.765625 4.296875 27.296875 
Q 4.296875 40.828125 12.640625 48.40625 
Q 21 56 35.796875 56 
Q 40.09375 56 44.265625 55.25 
Q 48.4375 54.5 52.59375 52.984375 
z
" id="DejaVuSans-Bold-99"/>
    </defs>
    <g style="fill:#262626;" transform="translate(657.204 25.8)scale(0.192 -0.192)">
     <use xlink:href="#DejaVuSans-Bold-86"/>
     <use x="77.314453" xlink:href="#DejaVuSans-Bold-111"/>
     <use x="146.015625" xlink:href="#DejaVuSans-Bold-99"/>
    </g>
   </g>
   <g id="legend_2">
    <g id="patch_23">
     <path d="M 743.4925 58.3575 
L 775.4925 58.3575 
L 775.4925 47.1575 
L 743.4925 47.1575 
z
" style="fill:#b22222;"/>
    </g>
    <g id="text_30">
     <!-- MAPE -->
     <g style="fill:#262626;" transform="translate(788.2925 58.3575)scale(0.16 -0.16)">
      <use xlink:href="#DejaVuSans-77"/>
      <use x="86.279297" xlink:href="#DejaVuSans-65"/>
      <use x="154.6875" xlink:href="#DejaVuSans-80"/>
      <use x="214.990234" xlink:href="#DejaVuSans-69"/>
     </g>
    </g>
   </g>
  </g>
  <g id="axes_3">
   <g id="patch_24">
    <path d="M 80.025 738.450798 
L 420.6 738.450798 
L 420.6 456.411262 
L 80.025 456.411262 
z
" style="fill:#ffffff;"/>
   </g>
   <g id="matplotlib.axis_5">
    <g id="xtick_11">
     <g id="line2d_25">
      <g>
       <use style="fill:#262626;stroke:#262626;stroke-width:0.8;" x="109.579029" xlink:href="#m2785822f82" y="738.450798"/>
      </g>
     </g>
     <g id="text_31">
      <!-- Scharber -->
      <g style="fill:#262626;" transform="translate(56.273784 809.599796)rotate(-45)scale(0.16 -0.16)">
       <use xlink:href="#DejaVuSans-83"/>
       <use x="63.476562" xlink:href="#DejaVuSans-99"/>
       <use x="118.457031" xlink:href="#DejaVuSans-104"/>
       <use x="181.835938" xlink:href="#DejaVuSans-97"/>
       <use x="243.115234" xlink:href="#DejaVuSans-114"/>
       <use x="284.228516" xlink:href="#DejaVuSans-98"/>
       <use x="347.705078" xlink:href="#DejaVuSans-101"/>
       <use x="409.228516" xlink:href="#DejaVuSans-114"/>
      </g>
     </g>
    </g>
    <g id="xtick_12">
     <g id="line2d_26">
      <g>
       <use style="fill:#262626;stroke:#262626;stroke-width:0.8;" x="203.401343" xlink:href="#m2785822f82" y="738.450798"/>
      </g>
     </g>
     <g id="text_32">
      <!-- Imamura -->
      <g style="fill:#262626;" transform="translate(149.982961 809.712933)rotate(-45)scale(0.16 -0.16)">
       <use xlink:href="#DejaVuSans-73"/>
       <use x="29.492188" xlink:href="#DejaVuSans-109"/>
       <use x="126.904297" xlink:href="#DejaVuSans-97"/>
       <use x="188.183594" xlink:href="#DejaVuSans-109"/>
       <use x="285.595703" xlink:href="#DejaVuSans-117"/>
       <use x="348.974609" xlink:href="#DejaVuSans-114"/>
       <use x="390.087891" xlink:href="#DejaVuSans-97"/>
      </g>
     </g>
    </g>
    <g id="xtick_13">
     <g id="line2d_27">
      <g>
       <use style="fill:#262626;stroke:#262626;stroke-width:0.8;" x="297.223657" xlink:href="#m2785822f82" y="738.450798"/>
      </g>
     </g>
     <g id="text_33">
      <!-- OPEP / B3LYP -->
      <g style="fill:#262626;" transform="translate(219.196191 834.322017)rotate(-45)scale(0.16 -0.16)">
       <use xlink:href="#DejaVuSans-79"/>
       <use x="78.710938" xlink:href="#DejaVuSans-80"/>
       <use x="139.013672" xlink:href="#DejaVuSans-69"/>
       <use x="202.197266" xlink:href="#DejaVuSans-80"/>
       <use x="262.5" xlink:href="#DejaVuSans-32"/>
       <use x="294.287109" xlink:href="#DejaVuSans-47"/>
       <use x="327.978516" xlink:href="#DejaVuSans-32"/>
       <use x="359.765625" xlink:href="#DejaVuSans-66"/>
       <use x="428.369141" xlink:href="#DejaVuSans-51"/>
       <use x="491.992188" xlink:href="#DejaVuSans-76"/>
       <use x="547.501953" xlink:href="#DejaVuSans-89"/>
       <use x="608.585938" xlink:href="#DejaVuSans-80"/>
      </g>
     </g>
    </g>
    <g id="xtick_14">
     <g id="line2d_28">
      <g>
       <use style="fill:#262626;stroke:#262626;stroke-width:0.8;" x="391.045971" xlink:href="#m2785822f82" y="738.450798"/>
      </g>
     </g>
     <g id="text_34">
      <!-- OPEP / sTD-DFT -->
      <g style="fill:#262626;" transform="translate(300.267603 847.07292)rotate(-45)scale(0.16 -0.16)">
       <use xlink:href="#DejaVuSans-79"/>
       <use x="78.710938" xlink:href="#DejaVuSans-80"/>
       <use x="139.013672" xlink:href="#DejaVuSans-69"/>
       <use x="202.197266" xlink:href="#DejaVuSans-80"/>
       <use x="262.5" xlink:href="#DejaVuSans-32"/>
       <use x="294.287109" xlink:href="#DejaVuSans-47"/>
       <use x="327.978516" xlink:href="#DejaVuSans-32"/>
       <use x="359.765625" xlink:href="#DejaVuSans-115"/>
       <use x="411.865234" xlink:href="#DejaVuSans-84"/>
       <use x="472.949219" xlink:href="#DejaVuSans-68"/>
       <use x="549.951172" xlink:href="#DejaVuSans-45"/>
       <use x="586.035156" xlink:href="#DejaVuSans-68"/>
       <use x="663.037109" xlink:href="#DejaVuSans-70"/>
       <use x="720.541016" xlink:href="#DejaVuSans-84"/>
      </g>
     </g>
    </g>
   </g>
   <g id="matplotlib.axis_6">
    <g id="ytick_15">
     <g id="line2d_29">
      <g>
       <use style="fill:#262626;stroke:#262626;stroke-width:0.8;" x="80.025" xlink:href="#mc380cffd5f" y="738.450798"/>
      </g>
     </g>
     <g id="text_35">
      <!-- 0.0 -->
      <defs>
       <path d="M 10.6875 12.40625 
L 21 12.40625 
L 21 0 
L 10.6875 0 
z
" id="DejaVuSans-46"/>
      </defs>
      <g style="fill:#262626;" transform="translate(42.98 744.529548)scale(0.16 -0.16)">
       <use xlink:href="#DejaVuSans-48"/>
       <use x="63.623047" xlink:href="#DejaVuSans-46"/>
       <use x="95.410156" xlink:href="#DejaVuSans-48"/>
      </g>
     </g>
    </g>
    <g id="ytick_16">
     <g id="line2d_30">
      <g>
       <use style="fill:#262626;stroke:#262626;stroke-width:0.8;" x="80.025" xlink:href="#mc380cffd5f" y="699.340565"/>
      </g>
     </g>
     <g id="text_36">
      <!-- 2.5 -->
      <g style="fill:#262626;" transform="translate(42.98 705.419315)scale(0.16 -0.16)">
       <use xlink:href="#DejaVuSans-50"/>
       <use x="63.623047" xlink:href="#DejaVuSans-46"/>
       <use x="95.410156" xlink:href="#DejaVuSans-53"/>
      </g>
     </g>
    </g>
    <g id="ytick_17">
     <g id="line2d_31">
      <g>
       <use style="fill:#262626;stroke:#262626;stroke-width:0.8;" x="80.025" xlink:href="#mc380cffd5f" y="660.230332"/>
      </g>
     </g>
     <g id="text_37">
      <!-- 5.0 -->
      <g style="fill:#262626;" transform="translate(42.98 666.309082)scale(0.16 -0.16)">
       <use xlink:href="#DejaVuSans-53"/>
       <use x="63.623047" xlink:href="#DejaVuSans-46"/>
       <use x="95.410156" xlink:href="#DejaVuSans-48"/>
      </g>
     </g>
    </g>
    <g id="ytick_18">
     <g id="line2d_32">
      <g>
       <use style="fill:#262626;stroke:#262626;stroke-width:0.8;" x="80.025" xlink:href="#mc380cffd5f" y="621.120099"/>
      </g>
     </g>
     <g id="text_38">
      <!-- 7.5 -->
      <g style="fill:#262626;" transform="translate(42.98 627.198849)scale(0.16 -0.16)">
       <use xlink:href="#DejaVuSans-55"/>
       <use x="63.623047" xlink:href="#DejaVuSans-46"/>
       <use x="95.410156" xlink:href="#DejaVuSans-53"/>
      </g>
     </g>
    </g>
    <g id="ytick_19">
     <g id="line2d_33">
      <g>
       <use style="fill:#262626;stroke:#262626;stroke-width:0.8;" x="80.025" xlink:href="#mc380cffd5f" y="582.009865"/>
      </g>
     </g>
     <g id="text_39">
      <!-- 10.0 -->
      <g style="fill:#262626;" transform="translate(32.8 588.088615)scale(0.16 -0.16)">
       <use xlink:href="#DejaVuSans-49"/>
       <use x="63.623047" xlink:href="#DejaVuSans-48"/>
       <use x="127.246094" xlink:href="#DejaVuSans-46"/>
       <use x="159.033203" xlink:href="#DejaVuSans-48"/>
      </g>
     </g>
    </g>
    <g id="ytick_20">
     <g id="line2d_34">
      <g>
       <use style="fill:#262626;stroke:#262626;stroke-width:0.8;" x="80.025" xlink:href="#mc380cffd5f" y="542.899632"/>
      </g>
     </g>
     <g id="text_40">
      <!-- 12.5 -->
      <g style="fill:#262626;" transform="translate(32.8 548.978382)scale(0.16 -0.16)">
       <use xlink:href="#DejaVuSans-49"/>
       <use x="63.623047" xlink:href="#DejaVuSans-50"/>
       <use x="127.246094" xlink:href="#DejaVuSans-46"/>
       <use x="159.033203" xlink:href="#DejaVuSans-53"/>
      </g>
     </g>
    </g>
    <g id="ytick_21">
     <g id="line2d_35">
      <g>
       <use style="fill:#262626;stroke:#262626;stroke-width:0.8;" x="80.025" xlink:href="#mc380cffd5f" y="503.789399"/>
      </g>
     </g>
     <g id="text_41">
      <!-- 15.0 -->
      <g style="fill:#262626;" transform="translate(32.8 509.868149)scale(0.16 -0.16)">
       <use xlink:href="#DejaVuSans-49"/>
       <use x="63.623047" xlink:href="#DejaVuSans-53"/>
       <use x="127.246094" xlink:href="#DejaVuSans-46"/>
       <use x="159.033203" xlink:href="#DejaVuSans-48"/>
      </g>
     </g>
    </g>
    <g id="ytick_22">
     <g id="line2d_36">
      <g>
       <use style="fill:#262626;stroke:#262626;stroke-width:0.8;" x="80.025" xlink:href="#mc380cffd5f" y="464.679165"/>
      </g>
     </g>
     <g id="text_42">
      <!-- 17.5 -->
      <g style="fill:#262626;" transform="translate(32.8 470.757915)scale(0.16 -0.16)">
       <use xlink:href="#DejaVuSans-49"/>
       <use x="63.623047" xlink:href="#DejaVuSans-55"/>
       <use x="127.246094" xlink:href="#DejaVuSans-46"/>
       <use x="159.033203" xlink:href="#DejaVuSans-53"/>
      </g>
     </g>
    </g>
    <g id="text_43">
     <!-- % -->
     <g style="fill:#262626;" transform="translate(25.13975 605.792405)rotate(-90)scale(0.176 -0.176)">
      <use xlink:href="#DejaVuSans-37"/>
     </g>
    </g>
   </g>
   <g id="patch_25">
    <path clip-path="url(#p032bfda806)" d="M 95.505682 738.450798 
L 123.652376 738.450798 
L 123.652376 488.92751 
L 95.505682 488.92751 
z
" style="fill:#b22222;"/>
   </g>
   <g id="patch_26">
    <path clip-path="url(#p032bfda806)" d="M 189.327996 738.450798 
L 217.47469 738.450798 
L 217.47469 488.92751 
L 189.327996 488.92751 
z
" style="fill:#b22222;"/>
   </g>
   <g id="patch_27">
    <path clip-path="url(#p032bfda806)" d="M 283.15031 738.450798 
L 311.297004 738.450798 
L 311.297004 610.987419 
L 283.15031 610.987419 
z
" style="fill:#b22222;"/>
   </g>
   <g id="patch_28">
    <path clip-path="url(#p032bfda806)" d="M 376.972624 738.450798 
L 405.119318 738.450798 
L 405.119318 629.112666 
L 376.972624 629.112666 
z
" style="fill:#b22222;"/>
   </g>
   <g id="LineCollection_3">
    <path clip-path="url(#p032bfda806)" d="M 109.579029 508.013304 
L 109.579029 469.841716 
" style="fill:none;stroke:#000000;stroke-width:1.4;"/>
    <path clip-path="url(#p032bfda806)" d="M 203.401343 508.013304 
L 203.401343 469.841716 
" style="fill:none;stroke:#000000;stroke-width:1.4;"/>
    <path clip-path="url(#p032bfda806)" d="M 297.223657 612.183567 
L 297.223657 609.791272 
" style="fill:none;stroke:#000000;stroke-width:1.4;"/>
    <path clip-path="url(#p032bfda806)" d="M 391.045971 629.795218 
L 391.045971 628.430114 
" style="fill:none;stroke:#000000;stroke-width:1.4;"/>
   </g>
   <g id="patch_29">
    <path d="M 80.025 738.450798 
L 80.025 456.411262 
" style="fill:none;stroke:#262626;stroke-linecap:square;stroke-linejoin:miter;stroke-width:1.25;"/>
   </g>
   <g id="patch_30">
    <path d="M 420.6 738.450798 
L 420.6 456.411262 
" style="fill:none;stroke:#262626;stroke-linecap:square;stroke-linejoin:miter;stroke-width:1.25;"/>
   </g>
   <g id="patch_31">
    <path d="M 80.025 738.450798 
L 420.6 738.450798 
" style="fill:none;stroke:#262626;stroke-linecap:square;stroke-linejoin:miter;stroke-width:1.25;"/>
   </g>
   <g id="patch_32">
    <path d="M 80.025 456.411262 
L 420.6 456.411262 
" style="fill:none;stroke:#262626;stroke-linecap:square;stroke-linejoin:miter;stroke-width:1.25;"/>
   </g>
   <g id="text_44">
    <!-- Jsc -->
    <defs>
     <path d="M 9.1875 72.90625 
L 27.984375 72.90625 
L 27.984375 7.078125 
Q 27.984375 -6.546875 20.578125 -13.28125 
Q 13.1875 -20.015625 -1.8125 -20.015625 
L -5.609375 -20.015625 
L -5.609375 -5.8125 
L -2.6875 -5.8125 
Q 3.171875 -5.8125 6.171875 -2.53125 
Q 9.1875 0.734375 9.1875 7.078125 
z
" id="DejaVuSans-Bold-74"/>
     <path d="M 51.125 52.984375 
L 51.125 39.703125 
Q 45.515625 42.046875 40.28125 43.21875 
Q 35.0625 44.390625 30.421875 44.390625 
Q 25.4375 44.390625 23.015625 43.140625 
Q 20.609375 41.890625 20.609375 39.3125 
Q 20.609375 37.203125 22.4375 36.078125 
Q 24.265625 34.96875 29 34.421875 
L 32.078125 33.984375 
Q 45.515625 32.28125 50.140625 28.375 
Q 54.78125 24.46875 54.78125 16.109375 
Q 54.78125 7.375 48.328125 2.96875 
Q 41.890625 -1.421875 29.109375 -1.421875 
Q 23.6875 -1.421875 17.890625 -0.5625 
Q 12.109375 0.296875 6 2 
L 6 15.28125 
Q 11.234375 12.75 16.71875 11.46875 
Q 22.21875 10.203125 27.875 10.203125 
Q 33.015625 10.203125 35.59375 11.609375 
Q 38.1875 13.03125 38.1875 15.828125 
Q 38.1875 18.171875 36.40625 19.3125 
Q 34.625 20.453125 29.296875 21.09375 
L 26.21875 21.484375 
Q 14.546875 22.953125 9.859375 26.90625 
Q 5.171875 30.859375 5.171875 38.921875 
Q 5.171875 47.609375 11.125 51.796875 
Q 17.09375 56 29.390625 56 
Q 34.234375 56 39.546875 55.265625 
Q 44.875 54.546875 51.125 52.984375 
z
" id="DejaVuSans-Bold-115"/>
    </defs>
    <g style="fill:#262626;" transform="translate(235.3365 450.411262)scale(0.192 -0.192)">
     <use xlink:href="#DejaVuSans-Bold-74"/>
     <use x="37.207031" xlink:href="#DejaVuSans-Bold-115"/>
     <use x="96.728516" xlink:href="#DejaVuSans-Bold-99"/>
    </g>
   </g>
   <g id="legend_3">
    <g id="patch_33">
     <path d="M 316.8925 482.968762 
L 348.8925 482.968762 
L 348.8925 471.768762 
L 316.8925 471.768762 
z
" style="fill:#b22222;"/>
    </g>
    <g id="text_45">
     <!-- MAPE -->
     <g style="fill:#262626;" transform="translate(361.6925 482.968762)scale(0.16 -0.16)">
      <use xlink:href="#DejaVuSans-77"/>
      <use x="86.279297" xlink:href="#DejaVuSans-65"/>
      <use x="154.6875" xlink:href="#DejaVuSans-80"/>
      <use x="214.990234" xlink:href="#DejaVuSans-69"/>
     </g>
    </g>
   </g>
  </g>
  <g id="axes_4">
   <g id="patch_34">
    <path d="M 506.625 738.450798 
L 847.2 738.450798 
L 847.2 456.411262 
L 506.625 456.411262 
z
" style="fill:#ffffff;"/>
   </g>
   <g id="matplotlib.axis_7">
    <g id="xtick_15">
     <g id="line2d_37">
      <g>
       <use style="fill:#262626;stroke:#262626;stroke-width:0.8;" x="532.906158" xlink:href="#m2785822f82" y="738.450798"/>
      </g>
     </g>
     <g id="text_46">
      <!-- Scharber -->
      <g style="fill:#262626;" transform="translate(479.600913 809.599796)rotate(-45)scale(0.16 -0.16)">
       <use xlink:href="#DejaVuSans-83"/>
       <use x="63.476562" xlink:href="#DejaVuSans-99"/>
       <use x="118.457031" xlink:href="#DejaVuSans-104"/>
       <use x="181.835938" xlink:href="#DejaVuSans-97"/>
       <use x="243.115234" xlink:href="#DejaVuSans-114"/>
       <use x="284.228516" xlink:href="#DejaVuSans-98"/>
       <use x="347.705078" xlink:href="#DejaVuSans-101"/>
       <use x="409.228516" xlink:href="#DejaVuSans-114"/>
      </g>
     </g>
    </g>
    <g id="xtick_16">
     <g id="line2d_38">
      <g>
       <use style="fill:#262626;stroke:#262626;stroke-width:0.8;" x="604.909329" xlink:href="#m2785822f82" y="738.450798"/>
      </g>
     </g>
     <g id="text_47">
      <!-- Imamura -->
      <g style="fill:#262626;" transform="translate(551.490947 809.712933)rotate(-45)scale(0.16 -0.16)">
       <use xlink:href="#DejaVuSans-73"/>
       <use x="29.492188" xlink:href="#DejaVuSans-109"/>
       <use x="126.904297" xlink:href="#DejaVuSans-97"/>
       <use x="188.183594" xlink:href="#DejaVuSans-109"/>
       <use x="285.595703" xlink:href="#DejaVuSans-117"/>
       <use x="348.974609" xlink:href="#DejaVuSans-114"/>
       <use x="390.087891" xlink:href="#DejaVuSans-97"/>
      </g>
     </g>
    </g>
    <g id="xtick_17">
     <g id="line2d_39">
      <g>
       <use style="fill:#262626;stroke:#262626;stroke-width:0.8;" x="676.9125" xlink:href="#m2785822f82" y="738.450798"/>
      </g>
     </g>
     <g id="text_48">
      <!-- Modified Alharbi -->
      <defs>
       <path d="M 30.609375 48.390625 
Q 23.390625 48.390625 19.1875 42.75 
Q 14.984375 37.109375 14.984375 27.296875 
Q 14.984375 17.484375 19.15625 11.84375 
Q 23.34375 6.203125 30.609375 6.203125 
Q 37.796875 6.203125 41.984375 11.859375 
Q 46.1875 17.53125 46.1875 27.296875 
Q 46.1875 37.015625 41.984375 42.703125 
Q 37.796875 48.390625 30.609375 48.390625 
z
M 30.609375 56 
Q 42.328125 56 49.015625 48.375 
Q 55.71875 40.765625 55.71875 27.296875 
Q 55.71875 13.875 49.015625 6.21875 
Q 42.328125 -1.421875 30.609375 -1.421875 
Q 18.84375 -1.421875 12.171875 6.21875 
Q 5.515625 13.875 5.515625 27.296875 
Q 5.515625 40.765625 12.171875 48.375 
Q 18.84375 56 30.609375 56 
z
" id="DejaVuSans-111"/>
       <path d="M 45.40625 46.390625 
L 45.40625 75.984375 
L 54.390625 75.984375 
L 54.390625 0 
L 45.40625 0 
L 45.40625 8.203125 
Q 42.578125 3.328125 38.25 0.953125 
Q 33.9375 -1.421875 27.875 -1.421875 
Q 17.96875 -1.421875 11.734375 6.484375 
Q 5.515625 14.40625 5.515625 27.296875 
Q 5.515625 40.1875 11.734375 48.09375 
Q 17.96875 56 27.875 56 
Q 33.9375 56 38.25 53.625 
Q 42.578125 51.265625 45.40625 46.390625 
z
M 14.796875 27.296875 
Q 14.796875 17.390625 18.875 11.75 
Q 22.953125 6.109375 30.078125 6.109375 
Q 37.203125 6.109375 41.296875 11.75 
Q 45.40625 17.390625 45.40625 27.296875 
Q 45.40625 37.203125 41.296875 42.84375 
Q 37.203125 48.484375 30.078125 48.484375 
Q 22.953125 48.484375 18.875 42.84375 
Q 14.796875 37.203125 14.796875 27.296875 
z
" id="DejaVuSans-100"/>
       <path d="M 37.109375 75.984375 
L 37.109375 68.5 
L 28.515625 68.5 
Q 23.6875 68.5 21.796875 66.546875 
Q 19.921875 64.59375 19.921875 59.515625 
L 19.921875 54.6875 
L 34.71875 54.6875 
L 34.71875 47.703125 
L 19.921875 47.703125 
L 19.921875 0 
L 10.890625 0 
L 10.890625 47.703125 
L 2.296875 47.703125 
L 2.296875 54.6875 
L 10.890625 54.6875 
L 10.890625 58.5 
Q 10.890625 67.625 15.140625 71.796875 
Q 19.390625 75.984375 28.609375 75.984375 
z
" id="DejaVuSans-102"/>
      </defs>
      <g style="fill:#262626;" transform="translate(582.722341 850.48471)rotate(-45)scale(0.16 -0.16)">
       <use xlink:href="#DejaVuSans-77"/>
       <use x="86.279297" xlink:href="#DejaVuSans-111"/>
       <use x="147.460938" xlink:href="#DejaVuSans-100"/>
       <use x="210.9375" xlink:href="#DejaVuSans-105"/>
       <use x="238.720703" xlink:href="#DejaVuSans-102"/>
       <use x="273.925781" xlink:href="#DejaVuSans-105"/>
       <use x="301.708984" xlink:href="#DejaVuSans-101"/>
       <use x="363.232422" xlink:href="#DejaVuSans-100"/>
       <use x="426.708984" xlink:href="#DejaVuSans-32"/>
       <use x="458.496094" xlink:href="#DejaVuSans-65"/>
       <use x="526.904297" xlink:href="#DejaVuSans-108"/>
       <use x="554.6875" xlink:href="#DejaVuSans-104"/>
       <use x="618.066406" xlink:href="#DejaVuSans-97"/>
       <use x="679.345703" xlink:href="#DejaVuSans-114"/>
       <use x="720.458984" xlink:href="#DejaVuSans-98"/>
       <use x="783.935547" xlink:href="#DejaVuSans-105"/>
      </g>
     </g>
    </g>
    <g id="xtick_18">
     <g id="line2d_40">
      <g>
       <use style="fill:#262626;stroke:#262626;stroke-width:0.8;" x="748.915671" xlink:href="#m2785822f82" y="738.450798"/>
      </g>
     </g>
     <g id="text_49">
      <!-- OPEP / B3LYP -->
      <g style="fill:#262626;" transform="translate(670.888206 834.322017)rotate(-45)scale(0.16 -0.16)">
       <use xlink:href="#DejaVuSans-79"/>
       <use x="78.710938" xlink:href="#DejaVuSans-80"/>
       <use x="139.013672" xlink:href="#DejaVuSans-69"/>
       <use x="202.197266" xlink:href="#DejaVuSans-80"/>
       <use x="262.5" xlink:href="#DejaVuSans-32"/>
       <use x="294.287109" xlink:href="#DejaVuSans-47"/>
       <use x="327.978516" xlink:href="#DejaVuSans-32"/>
       <use x="359.765625" xlink:href="#DejaVuSans-66"/>
       <use x="428.369141" xlink:href="#DejaVuSans-51"/>
       <use x="491.992188" xlink:href="#DejaVuSans-76"/>
       <use x="547.501953" xlink:href="#DejaVuSans-89"/>
       <use x="608.585938" xlink:href="#DejaVuSans-80"/>
      </g>
     </g>
    </g>
    <g id="xtick_19">
     <g id="line2d_41">
      <g>
       <use style="fill:#262626;stroke:#262626;stroke-width:0.8;" x="820.918842" xlink:href="#m2785822f82" y="738.450798"/>
      </g>
     </g>
     <g id="text_50">
      <!-- OPEP / sTD-DFT -->
      <g style="fill:#262626;" transform="translate(730.140474 847.07292)rotate(-45)scale(0.16 -0.16)">
       <use xlink:href="#DejaVuSans-79"/>
       <use x="78.710938" xlink:href="#DejaVuSans-80"/>
       <use x="139.013672" xlink:href="#DejaVuSans-69"/>
       <use x="202.197266" xlink:href="#DejaVuSans-80"/>
       <use x="262.5" xlink:href="#DejaVuSans-32"/>
       <use x="294.287109" xlink:href="#DejaVuSans-47"/>
       <use x="327.978516" xlink:href="#DejaVuSans-32"/>
       <use x="359.765625" xlink:href="#DejaVuSans-115"/>
       <use x="411.865234" xlink:href="#DejaVuSans-84"/>
       <use x="472.949219" xlink:href="#DejaVuSans-68"/>
       <use x="549.951172" xlink:href="#DejaVuSans-45"/>
       <use x="586.035156" xlink:href="#DejaVuSans-68"/>
       <use x="663.037109" xlink:href="#DejaVuSans-70"/>
       <use x="720.541016" xlink:href="#DejaVuSans-84"/>
      </g>
     </g>
    </g>
   </g>
   <g id="matplotlib.axis_8">
    <g id="ytick_23">
     <g id="line2d_42">
      <g>
       <use style="fill:#262626;stroke:#262626;stroke-width:0.8;" x="506.625" xlink:href="#mc380cffd5f" y="738.450798"/>
      </g>
     </g>
     <g id="text_51">
      <!-- 0 -->
      <g style="fill:#262626;" transform="translate(484.845 744.529548)scale(0.16 -0.16)">
       <use xlink:href="#DejaVuSans-48"/>
      </g>
     </g>
    </g>
    <g id="ytick_24">
     <g id="line2d_43">
      <g>
       <use style="fill:#262626;stroke:#262626;stroke-width:0.8;" x="506.625" xlink:href="#mc380cffd5f" y="672.061999"/>
      </g>
     </g>
     <g id="text_52">
      <!-- 5 -->
      <g style="fill:#262626;" transform="translate(484.845 678.140749)scale(0.16 -0.16)">
       <use xlink:href="#DejaVuSans-53"/>
      </g>
     </g>
    </g>
    <g id="ytick_25">
     <g id="line2d_44">
      <g>
       <use style="fill:#262626;stroke:#262626;stroke-width:0.8;" x="506.625" xlink:href="#mc380cffd5f" y="605.6732"/>
      </g>
     </g>
     <g id="text_53">
      <!-- 10 -->
      <g style="fill:#262626;" transform="translate(474.665 611.75195)scale(0.16 -0.16)">
       <use xlink:href="#DejaVuSans-49"/>
       <use x="63.623047" xlink:href="#DejaVuSans-48"/>
      </g>
     </g>
    </g>
    <g id="ytick_26">
     <g id="line2d_45">
      <g>
       <use style="fill:#262626;stroke:#262626;stroke-width:0.8;" x="506.625" xlink:href="#mc380cffd5f" y="539.2844"/>
      </g>
     </g>
     <g id="text_54">
      <!-- 15 -->
      <g style="fill:#262626;" transform="translate(474.665 545.36315)scale(0.16 -0.16)">
       <use xlink:href="#DejaVuSans-49"/>
       <use x="63.623047" xlink:href="#DejaVuSans-53"/>
      </g>
     </g>
    </g>
    <g id="ytick_27">
     <g id="line2d_46">
      <g>
       <use style="fill:#262626;stroke:#262626;stroke-width:0.8;" x="506.625" xlink:href="#mc380cffd5f" y="472.895601"/>
      </g>
     </g>
     <g id="text_55">
      <!-- 20 -->
      <g style="fill:#262626;" transform="translate(474.665 478.974351)scale(0.16 -0.16)">
       <use xlink:href="#DejaVuSans-50"/>
       <use x="63.623047" xlink:href="#DejaVuSans-48"/>
      </g>
     </g>
    </g>
    <g id="text_56">
     <!-- % -->
     <g style="fill:#262626;" transform="translate(467.00475 605.792405)rotate(-90)scale(0.176 -0.176)">
      <use xlink:href="#DejaVuSans-37"/>
     </g>
    </g>
   </g>
   <g id="patch_35">
    <path clip-path="url(#p5017600316)" d="M 522.105682 738.450798 
L 543.706633 738.450798 
L 543.706633 492.015575 
L 522.105682 492.015575 
z
" style="fill:#b22222;"/>
   </g>
   <g id="patch_36">
    <path clip-path="url(#p5017600316)" d="M 594.108853 738.450798 
L 615.709804 738.450798 
L 615.709804 492.015575 
L 594.108853 492.015575 
z
" style="fill:#b22222;"/>
   </g>
   <g id="patch_37">
    <path clip-path="url(#p5017600316)" d="M 666.112024 738.450798 
L 687.712976 738.450798 
L 687.712976 505.957223 
L 666.112024 505.957223 
z
" style="fill:#b22222;"/>
   </g>
   <g id="patch_38">
    <path clip-path="url(#p5017600316)" d="M 738.115196 738.450798 
L 759.716147 738.450798 
L 759.716147 604.016135 
L 738.115196 604.016135 
z
" style="fill:#b22222;"/>
   </g>
   <g id="patch_39">
    <path clip-path="url(#p5017600316)" d="M 810.118367 738.450798 
L 831.719318 738.450798 
L 831.719318 600.69404 
L 810.118367 600.69404 
z
" style="fill:#b22222;"/>
   </g>
   <g id="LineCollection_4">
    <path clip-path="url(#p5017600316)" d="M 532.906158 514.189434 
L 532.906158 469.841716 
" style="fill:none;stroke:#000000;stroke-width:1.4;"/>
    <path clip-path="url(#p5017600316)" d="M 604.909329 514.189434 
L 604.909329 469.841716 
" style="fill:none;stroke:#000000;stroke-width:1.4;"/>
    <path clip-path="url(#p5017600316)" d="M 676.9125 526.537751 
L 676.9125 485.376695 
" style="fill:none;stroke:#000000;stroke-width:1.4;"/>
    <path clip-path="url(#p5017600316)" d="M 748.915671 604.772569 
L 748.915671 603.259701 
" style="fill:none;stroke:#000000;stroke-width:1.4;"/>
    <path clip-path="url(#p5017600316)" d="M 820.918842 601.79304 
L 820.918842 599.59504 
" style="fill:none;stroke:#000000;stroke-width:1.4;"/>
   </g>
   <g id="patch_40">
    <path d="M 506.625 738.450798 
L 506.625 456.411262 
" style="fill:none;stroke:#262626;stroke-linecap:square;stroke-linejoin:miter;stroke-width:1.25;"/>
   </g>
   <g id="patch_41">
    <path d="M 847.2 738.450798 
L 847.2 456.411262 
" style="fill:none;stroke:#262626;stroke-linecap:square;stroke-linejoin:miter;stroke-width:1.25;"/>
   </g>
   <g id="patch_42">
    <path d="M 506.625 738.450798 
L 847.2 738.450798 
" style="fill:none;stroke:#262626;stroke-linecap:square;stroke-linejoin:miter;stroke-width:1.25;"/>
   </g>
   <g id="patch_43">
    <path d="M 506.625 456.411262 
L 847.2 456.411262 
" style="fill:none;stroke:#262626;stroke-linecap:square;stroke-linejoin:miter;stroke-width:1.25;"/>
   </g>
   <g id="text_57">
    <!-- PCE -->
    <defs>
     <path d="M 9.1875 72.90625 
L 40.375 72.90625 
Q 54.296875 72.90625 61.734375 66.71875 
Q 69.1875 60.546875 69.1875 49.125 
Q 69.1875 37.640625 61.734375 31.46875 
Q 54.296875 25.296875 40.375 25.296875 
L 27.984375 25.296875 
L 27.984375 0 
L 9.1875 0 
z
M 27.984375 59.28125 
L 27.984375 38.921875 
L 38.375 38.921875 
Q 43.84375 38.921875 46.828125 41.578125 
Q 49.8125 44.234375 49.8125 49.125 
Q 49.8125 54 46.828125 56.640625 
Q 43.84375 59.28125 38.375 59.28125 
z
" id="DejaVuSans-Bold-80"/>
     <path d="M 67 4 
Q 61.8125 1.3125 56.203125 -0.046875 
Q 50.59375 -1.421875 44.484375 -1.421875 
Q 26.265625 -1.421875 15.625 8.765625 
Q 4.984375 18.953125 4.984375 36.375 
Q 4.984375 53.859375 15.625 64.03125 
Q 26.265625 74.21875 44.484375 74.21875 
Q 50.59375 74.21875 56.203125 72.84375 
Q 61.8125 71.484375 67 68.796875 
L 67 53.71875 
Q 61.765625 57.28125 56.6875 58.9375 
Q 51.609375 60.59375 46 60.59375 
Q 35.9375 60.59375 30.171875 54.140625 
Q 24.421875 47.703125 24.421875 36.375 
Q 24.421875 25.09375 30.171875 18.640625 
Q 35.9375 12.203125 46 12.203125 
Q 51.609375 12.203125 56.6875 13.859375 
Q 61.765625 15.53125 67 19.09375 
z
" id="DejaVuSans-Bold-67"/>
     <path d="M 9.1875 72.90625 
L 59.90625 72.90625 
L 59.90625 58.6875 
L 27.984375 58.6875 
L 27.984375 45.125 
L 58.015625 45.125 
L 58.015625 30.90625 
L 27.984375 30.90625 
L 27.984375 14.203125 
L 60.984375 14.203125 
L 60.984375 0 
L 9.1875 0 
z
" id="DejaVuSans-Bold-69"/>
    </defs>
    <g style="fill:#262626;" transform="translate(656.2725 450.411262)scale(0.192 -0.192)">
     <use xlink:href="#DejaVuSans-Bold-80"/>
     <use x="73.291016" xlink:href="#DejaVuSans-Bold-67"/>
     <use x="146.679688" xlink:href="#DejaVuSans-Bold-69"/>
    </g>
   </g>
   <g id="legend_4">
    <g id="patch_44">
     <path d="M 743.4925 482.968762 
L 775.4925 482.968762 
L 775.4925 471.768762 
L 743.4925 471.768762 
z
" style="fill:#b22222;"/>
    </g>
    <g id="text_58">
     <!-- MAPE -->
     <g style="fill:#262626;" transform="translate(788.2925 482.968762)scale(0.16 -0.16)">
      <use xlink:href="#DejaVuSans-77"/>
      <use x="86.279297" xlink:href="#DejaVuSans-65"/>
      <use x="154.6875" xlink:href="#DejaVuSans-80"/>
      <use x="214.990234" xlink:href="#DejaVuSans-69"/>
     </g>
    </g>
   </g>
  </g>
 </g>
 <defs>
  <clipPath id="p6e84ca5107">
   <rect height="282.039536" width="340.575" x="80.025" y="31.8"/>
  </clipPath>
  <clipPath id="pdfebec1b47">
   <rect height="282.039536" width="340.575" x="506.625" y="31.8"/>
  </clipPath>
  <clipPath id="p032bfda806">
   <rect height="282.039536" width="340.575" x="80.025" y="456.411262"/>
  </clipPath>
  <clipPath id="p5017600316">
   <rect height="282.039536" width="340.575" x="506.625" y="456.411262"/>
  </clipPath>
 </defs>
</svg>
